<?xml version="1.0" encoding="UTF-8"?>
<svg version="1.1" xmlns="http://www.w3.org/2000/svg" width="1320" height="1000">
<path d="M0 0 C435.6 0 871.2 0 1320 0 C1320 330 1320 660 1320 1000 C884.4 1000 448.8 1000 0 1000 C0 670 0 340 0 0 Z " fill="#F4F4F4" transform="translate(0,0)"/>
<path d="M0 0 C0.66 0.33 1.32 0.66 2 1 C2.57836914 2.83837891 2.57836914 2.83837891 3.03515625 5.2265625 C3.20466797 6.09410156 3.37417969 6.96164062 3.54882812 7.85546875 C3.71833984 8.76941406 3.88785156 9.68335938 4.0625 10.625 C4.23587891 11.51574219 4.40925781 12.40648437 4.58789062 13.32421875 C6.12797961 21.33740207 7.16113297 29.07575777 7.203125 37.23828125 C7.20882507 38.11792038 7.21452515 38.99755951 7.22039795 39.90385437 C7.22980948 41.76377171 7.23636656 43.62370544 7.24023438 45.48364258 C7.24983983 48.26610378 7.28085784 51.04779298 7.3125 53.83007812 C7.36773615 62.61379983 7.12643673 71.27708975 5.8671875 79.98046875 C5.776651 80.70502762 5.6861145 81.42958649 5.59283447 82.17610168 C4.48489632 88.75844036 0.94267909 91.74614261 -4.16894531 95.50170898 C-4.75772461 95.85048096 -5.34650391 96.19925293 -5.953125 96.55859375 C-6.62021484 96.96190918 -7.28730469 97.36522461 -7.97460938 97.78076172 C-8.64298828 98.18311035 -9.31136719 98.58545898 -10 99 C-11.28849136 99.84194898 -12.57495484 100.6870095 -13.859375 101.53515625 C-54.1403216 127.36469164 -108.84399752 137.0203605 -156.0234375 137.203125 C-157.23558426 137.21009399 -158.44773102 137.21706299 -159.6966095 137.22424316 C-163.58944198 137.24155329 -167.48213063 137.24796331 -171.375 137.25 C-172.36790228 137.25088371 -172.36790228 137.25088371 -173.38086319 137.25178528 C-193.09170274 137.2641798 -212.47657388 136.97508727 -232 134 C-233.07556152 133.8448291 -234.15112305 133.6896582 -235.25927734 133.52978516 C-247.69570215 131.71563902 -259.88934121 129.3805049 -272 126 C-272.79970215 125.78085937 -273.5994043 125.56171875 -274.42333984 125.3359375 C-280.63733467 123.62916963 -286.82622997 121.84688418 -293 120 C-293.8029248 119.76023437 -294.60584961 119.52046875 -295.43310547 119.2734375 C-305.8489539 116.11462156 -315.46150538 112.16592905 -325.05761719 107.03222656 C-327.00889385 105.99527361 -328.97423147 104.99090761 -330.9453125 103.9921875 C-345.72859941 96.43006744 -364.30183251 85.1451726 -372.08081055 69.87890625 C-373.26514145 66.16957556 -373.30545093 62.6501574 -373.30078125 58.796875 C-373.30506638 58.00081848 -373.3093515 57.20476196 -373.31376648 56.38458252 C-373.31950021 54.69682765 -373.32001709 53.00904808 -373.31567383 51.32128906 C-373.31256131 48.79967031 -373.3358162 46.27928221 -373.36132812 43.7578125 C-373.40184689 32.8666906 -372.27183412 22.64830916 -370 12 C-368.6696875 13.1446875 -368.6696875 13.1446875 -367.3125 14.3125 C-366.34957031 15.13234375 -366.34957031 15.13234375 -365.3671875 15.96875 C-363.610654 17.47600647 -361.86795035 18.99941168 -360.1328125 20.53125 C-344.30560559 34.39025558 -325.91841439 45.15237213 -306 52 C-305.2476709 52.26522461 -304.4953418 52.53044922 -303.72021484 52.80371094 C-285.03038889 59.37942142 -266.66169818 63.94967566 -247.0625 66.75 C-246.31442078 66.8570929 -245.56634155 66.96418579 -244.79559326 67.07452393 C-231.23324624 68.99339037 -217.81349973 70.1503756 -204.10546875 70.203125 C-202.91560867 70.20882507 -201.7257486 70.21452515 -200.49983215 70.22039795 C-197.99476999 70.22977925 -195.48969587 70.23635429 -192.98461914 70.24023438 C-189.2349577 70.24987795 -185.48586011 70.28094368 -181.73632812 70.3125 C-166.26014622 70.38072059 -151.28714218 69.42152567 -136 67 C-134.69667725 66.79584473 -133.39335449 66.59168945 -132.05053711 66.38134766 C-128.9801486 65.8642916 -125.92827937 65.29681389 -122.875 64.6875 C-121.80644775 64.47730225 -120.73789551 64.26710449 -119.63696289 64.05053711 C-77.36857629 55.49044549 -32.91534869 39.49693222 -4 6 C-2.94884313 4.3651156 -1.92723123 2.7082213 -1 1 C-0.67 0.67 -0.34 0.34 0 0 Z " fill="#3FC1C9" transform="translate(844,288)"/>
<path d="M0 0 C4.5836765 3.29821741 7.75285175 7.16534028 11.125 11.625 C11.9754187 12.74890137 11.9754187 12.74890137 12.84301758 13.89550781 C21.32395444 25.2887664 28.37209217 37.28652791 34.5625 50.0625 C35.18934692 51.34688965 35.18934692 51.34688965 35.82885742 52.65722656 C40.84263476 63.33689523 40.84263476 63.33689523 41 69 C39.54296875 72.1875 39.54296875 72.1875 37.1875 75 C36.76879639 75.50708496 36.35009277 76.01416992 35.91870117 76.53662109 C34.64523203 78.05255341 33.32291654 79.52702129 32 81 C31.30132813 81.79664063 30.60265625 82.59328125 29.8828125 83.4140625 C3.3530084 111.74589102 -40.03666546 124.1583214 -77 130 C-78.02641602 130.16371094 -79.05283203 130.32742188 -80.11035156 130.49609375 C-124.5275714 137.16625646 -177.06151463 136.56517285 -219.84277344 121.72973633 C-222.62684291 120.78795456 -225.44394411 120.00277161 -228.27441406 119.21411133 C-235.89312272 117.07743722 -242.88562034 114.48744101 -250 111 C-251.6027441 110.26771175 -253.20707086 109.53888282 -254.8125 108.8125 C-271.24078753 101.3097939 -285.18884421 92.77336477 -298 80 C-298.75023437 79.27296875 -299.50046875 78.5459375 -300.2734375 77.796875 C-306.1974099 71.66862769 -313.00642577 62.46190561 -312.99609375 53.6796875 C-311.67030036 48.78205076 -309.4579325 44.66745092 -307 40.25 C-306.08153108 38.56869162 -305.16478703 36.8864395 -304.25 35.203125 C-303.84265625 34.46739258 -303.4353125 33.73166016 -303.015625 32.97363281 C-301.87582551 30.88231648 -301.87582551 30.88231648 -301 28 C-300.34 28 -299.68 28 -299 28 C-298.75507813 27.29488281 -298.51015625 26.58976562 -298.2578125 25.86328125 C-296.82532472 22.60236963 -295.00478131 20.03865885 -292.875 17.1875 C-292.15054687 16.21167969 -291.42609375 15.23585937 -290.6796875 14.23046875 C-290.12539063 13.49441406 -289.57109375 12.75835937 -289 12 C-286.11499321 13.4425034 -286.03359141 15.24851672 -284.9375 18.25 C-278.40720421 34.30841742 -267.01140592 45.60760002 -252 54 C-251.01 54.33 -250.02 54.66 -249 55 C-249 55.66 -249 56.32 -249 57 C-247.80697266 57.37511719 -247.80697266 57.37511719 -246.58984375 57.7578125 C-243.03708436 58.98716776 -239.59528625 60.37789055 -236.12451172 61.81762695 C-191.1278069 80.38830816 -137.8433415 80.33902321 -91 69 C-90.20899902 68.81179688 -89.41799805 68.62359375 -88.60302734 68.4296875 C-59.79876092 61.49864284 -27.26058321 49.74014499 -9 25 C-8.67 24.01 -8.34 23.02 -8 22 C-7.34 22 -6.68 22 -6 22 C-3.73141173 14.72764611 -1.79354806 7.40315583 0 0 Z " fill="#3FC1C9" transform="translate(800,207)"/>
<path d="M0 0 C1.18967244 3.56901731 0.46754924 4.65039469 -1.05761719 7.93823242 C-2.05209668 10.11397836 -2.90881228 12.31740824 -3.765625 14.55078125 C-9.83601891 29.78740026 -18.08951663 44.24177435 -27.84375 57.40478516 C-28.86321248 58.81128174 -29.81265696 60.26796254 -30.75 61.73046875 C-35.51043979 68.83542513 -42.32088858 71.84880362 -50 75 C-50.70705078 75.29116699 -51.41410156 75.58233398 -52.14257812 75.88232422 C-88.3821485 90.5138512 -127.15836078 95.57763801 -166.02246094 95.39111328 C-169.99709364 95.37501177 -173.97070995 95.39108051 -177.9453125 95.41015625 C-208.31477475 95.43479764 -238.93030377 92.10179939 -268 83 C-269.01078613 82.68933594 -270.02157227 82.37867188 -271.06298828 82.05859375 C-295.7775845 74.4014725 -319.2492251 65.41593963 -338 47 C-338.598125 46.41476562 -339.19625 45.82953125 -339.8125 45.2265625 C-346.81452892 37.7694017 -348.62097772 28.96828598 -349 19 C-348.01 19 -347.02 19 -346 19 C-346 19.66 -346 20.32 -346 21 C-344.7625 21.391875 -343.525 21.78375 -342.25 22.1875 C-338.52542233 23.42515217 -334.92362244 24.83845529 -331.3125 26.375 C-324.62770568 29.18832424 -317.88637994 31.72463157 -311 34 C-310.32050293 34.22800293 -309.64100586 34.45600586 -308.94091797 34.69091797 C-270.67808336 47.27249098 -230.25818205 50.23192171 -190.27521896 50.36702347 C-188.22748787 50.37484722 -186.1798165 50.38691961 -184.1321106 50.39962769 C-122.65793335 50.67890805 -53.07588869 38.42770929 -2 2 C-1.34 1.34 -0.68 0.68 0 0 Z " fill="#40C1C9" transform="translate(842,393)"/>
<path d="M0 0 C6.43447351 1.41558417 12.40895265 2.8802458 18.21875 6.03515625 C20.41318471 7.22380839 22.69156848 8.17757518 24.9921875 9.140625 C29.36403219 11.01184257 33.67582675 13.02167119 38 15 C38 15.66 38 16.32 38 17 C38.721875 17.268125 39.44375 17.53625 40.1875 17.8125 C50.0666245 21.9836859 58.67842555 29.35555929 67 36 C67.55171875 36.43787842 68.1034375 36.87575684 68.671875 37.3269043 C72.47296034 40.40161317 74.11132385 42.11228115 75 47 C76.00557108 57.99843366 73.50025519 65.46367552 66.68359375 74.03125 C60.57476492 81.17475285 54.18982834 86.36214182 46 91 C45.42781738 91.32500488 44.85563477 91.65000977 44.26611328 91.98486328 C18.83448647 106.18764764 -10.79773341 110.22552535 -39.5625 110.25 C-40.282099 110.25067474 -41.001698 110.25134949 -41.74310303 110.25204468 C-76.68038999 110.20050339 -113.18303937 104.15512062 -144 87 C-145.08796875 86.4121875 -146.1759375 85.824375 -147.296875 85.21875 C-157.13933472 79.72296031 -165.86964841 73.61028714 -172 64 C-172.928125 62.6078125 -172.928125 62.6078125 -173.875 61.1875 C-175.86766909 55.54160424 -176.183994 50.06909818 -174.00390625 44.41796875 C-164.99748585 28.21661761 -147.99477667 18.11554463 -131 12 C-131.04640625 13.18335938 -131.0928125 14.36671875 -131.140625 15.5859375 C-131.47080176 27.58913259 -130.37272215 36.09290461 -123 46 C-122.46375 46.804375 -121.9275 47.60875 -121.375 48.4375 C-117.19729196 52.94502709 -111.86302203 57.04565932 -106 59 C-106 59.66 -106 60.32 -106 61 C-103.56363885 61.62972446 -101.12603705 62.25380086 -98.6875 62.875 C-98.01654297 63.04902344 -97.34558594 63.22304687 -96.65429688 63.40234375 C-67.67374407 70.74952615 -38.66974728 67.94671347 -12.59375 53.0546875 C-2.52723312 46.70082164 4.21739739 39.34780782 8 28 C9.01364847 17.08250746 6.45038453 8.75409329 0 0 Z " fill="#3FC1C9" transform="translate(717,155)"/>
<path d="M0 0 C3.86223509 -0.2354251 7.72261886 -0.37775098 11.58984375 -0.50390625 C12.67954468 -0.57146118 13.76924561 -0.63901611 14.89196777 -0.70861816 C22.86083032 -0.9036444 22.86083032 -0.9036444 26.18509769 1.733325 C29.09888167 5.27505688 31.36330764 9.10299849 33.21484375 13.30078125 C36.14331708 19.50130386 39.81302159 25.06270129 43.625 30.75 C44.80627055 32.55625736 45.98596564 34.36354606 47.1640625 36.171875 C51.7364088 43.14091558 56.36924637 50.06970019 61 57 C61.01030746 56.30064835 61.02061493 55.60129669 61.03123474 54.88075256 C61.12905032 48.30286337 61.23154157 41.7250658 61.33933926 35.14733219 C61.39459802 31.76532878 61.44802256 28.38331676 61.49731445 25.0012207 C61.55400946 21.11660573 61.61857585 17.23214122 61.68359375 13.34765625 C61.70866249 11.51800072 61.70866249 11.51800072 61.73423767 9.65138245 C61.75418289 8.53029587 61.77412811 7.40920929 61.79467773 6.25415039 C61.81022202 5.26153702 61.8257663 4.26892365 61.84178162 3.24623108 C62 1 62 1 63 0 C70.92 0 78.84 0 87 0 C87 34.65 87 69.3 87 105 C79.41 105 71.82 105 64 105 C56.45411568 96.126599 56.45411568 96.126599 54.55078125 92.0703125 C52.17732699 87.26504783 49.4172891 82.88444714 46.4375 78.4375 C45.53608466 77.04619564 44.63764876 75.65295643 43.7421875 74.2578125 C40.85423489 69.77262401 37.95931656 65.29196756 35.0625 60.8125 C34.61382568 60.11761475 34.16515137 59.42272949 33.70288086 58.70678711 C33.27628174 58.04686768 32.84968262 57.38694824 32.41015625 56.70703125 C32.04027588 56.1344458 31.67039551 55.56186035 31.28930664 54.97192383 C29.54405998 52.30266473 27.7715603 49.65184453 26 47 C25.98969254 47.71187973 25.97938507 48.42375946 25.96876526 49.1572113 C25.87095102 55.85282826 25.76845996 62.54835518 25.66066074 69.24381924 C25.6054012 72.6863574 25.55197653 76.128904 25.50268555 79.5715332 C25.44599199 83.52564526 25.38142505 87.47960944 25.31640625 91.43359375 C25.29133751 93.29605995 25.29133751 93.29605995 25.26576233 95.19615173 C25.24581711 96.33725906 25.22587189 97.47836639 25.20532227 98.65405273 C25.18977798 99.664431 25.1742337 100.67480927 25.15821838 101.71580505 C25 104 25 104 24 105 C22.30441274 105.09932153 20.60474253 105.13080007 18.90625 105.1328125 C17.87628906 105.13410156 16.84632813 105.13539063 15.78515625 105.13671875 C14.15900391 105.13091797 14.15900391 105.13091797 12.5 105.125 C11.41589844 105.12886719 10.33179688 105.13273438 9.21484375 105.13671875 C8.18488281 105.13542969 7.15492188 105.13414062 6.09375 105.1328125 C5.14177734 105.13168457 4.18980469 105.13055664 3.20898438 105.12939453 C1 105 1 105 0 104 C-0.09531163 102.6465941 -0.1218872 101.28826016 -0.12025452 99.9315033 C-0.12162918 99.05505661 -0.12300385 98.17860992 -0.12442017 97.27560425 C-0.12082489 96.30672272 -0.11722961 95.33784119 -0.11352539 94.33959961 C-0.11367142 93.32508224 -0.11381744 92.31056488 -0.1139679 91.26530457 C-0.11326829 87.89429627 -0.10547368 84.52334246 -0.09765625 81.15234375 C-0.09579224 78.82206757 -0.09436826 76.491791 -0.09336853 74.16151428 C-0.08954202 68.01462735 -0.0797106 61.86776387 -0.06866455 55.72088623 C-0.05845329 49.45390134 -0.05387152 43.18691268 -0.04882812 36.91992188 C-0.03808845 24.61327092 -0.02101044 12.30663741 0 0 Z " fill="#37506C" transform="translate(603,676)"/>
<path d="M0 0 C1.01642578 -0.01224609 2.03285156 -0.02449219 3.08007812 -0.03710938 C17.56119749 -0.06515544 31.02074577 4.74202931 41.59765625 14.90234375 C41.99855469 15.32644531 42.39945312 15.75054688 42.8125 16.1875 C41.25551719 21.09293378 38.37926327 24.56700236 35.1875 28.5 C34.4140625 29.46776367 34.4140625 29.46776367 33.625 30.45507812 C32.35955818 32.0368804 31.08675738 33.61279063 29.8125 35.1875 C26.45809329 34.43691866 24.35946553 33.33476645 21.5625 31.3125 C13.13673793 25.62237496 6.06412752 24.10319324 -4.1875 25.1875 C-12.38725101 27.10077524 -17.69691792 31.26754009 -22.50390625 38.04296875 C-26.48132054 45.2078579 -26.31054315 54.24570013 -25.1875 62.1875 C-23.33119554 68.31178316 -20.16793798 73.13365513 -15.1875 77.1875 C-14.44693359 77.88359375 -14.44693359 77.88359375 -13.69140625 78.59375 C-7.43529847 83.60978297 0.23114314 82.95337696 7.84667969 82.41015625 C11.82243956 81.95984664 15.16102931 80.78086903 18.8125 79.1875 C18.8125 76.5475 18.8125 73.9075 18.8125 71.1875 C17.42224609 71.20490234 17.42224609 71.20490234 16.00390625 71.22265625 C14.80636719 71.23167969 13.60882813 71.24070312 12.375 71.25 C11.18003906 71.26160156 9.98507812 71.27320313 8.75390625 71.28515625 C5.8125 71.1875 5.8125 71.1875 4.8125 70.1875 C4.71350477 68.63794441 4.68170476 67.08396327 4.6796875 65.53125 C4.67775391 64.12166016 4.67775391 64.12166016 4.67578125 62.68359375 C4.67964844 61.69488281 4.68351562 60.70617187 4.6875 59.6875 C4.68169922 58.20443359 4.68169922 58.20443359 4.67578125 56.69140625 C4.67707031 55.75167969 4.67835938 54.81195312 4.6796875 53.84375 C4.68081543 52.97556641 4.68194336 52.10738281 4.68310547 51.21289062 C4.8125 49.1875 4.8125 49.1875 5.8125 48.1875 C8.39439446 48.08658525 10.948965 48.04778501 13.53125 48.0546875 C14.30432495 48.05373077 15.0773999 48.05277405 15.87390137 48.05178833 C17.51147544 48.05110659 19.14905219 48.05296043 20.78662109 48.05712891 C23.30181921 48.06247729 25.81683873 48.05718374 28.33203125 48.05078125 C29.91927123 48.05144203 31.5065111 48.0527232 33.09375 48.0546875 C33.85103394 48.05266327 34.60831787 48.05063904 35.3885498 48.04855347 C40.69754868 48.07254868 40.69754868 48.07254868 41.8125 49.1875 C41.9622221 50.56046996 42.04553803 51.94078885 42.10058594 53.32080078 C42.15372955 54.63819748 42.15372955 54.63819748 42.20794678 55.98220825 C42.33181876 60.02258585 42.42256787 64.06282422 42.4921875 68.10449219 C42.53883991 70.23300841 42.60700068 72.36116818 42.69726562 74.48828125 C43.43079712 92.07114077 43.43079712 92.07114077 39.6159668 97.06005859 C36.72350382 98.96220704 34.09701444 100.11572246 30.8125 101.1875 C30.03052246 101.52894043 29.24854492 101.87038086 28.44287109 102.22216797 C26.36078016 103.12249314 24.28030321 103.85831217 22.125 104.5625 C21.43083984 104.80871094 20.73667969 105.05492187 20.02148438 105.30859375 C5.57121542 110.23757645 -10.47712087 109.34808227 -24.375 103.0625 C-38.38865637 95.46418632 -47.01029066 82.87958057 -52.1875 68.1875 C-52.95227021 65.32967449 -53.09104998 63.22567548 -53.1875 60.1875 C-53.22488281 59.20265625 -53.26226562 58.2178125 -53.30078125 57.203125 C-53.64640758 41.70451263 -50.07030738 28.6339832 -39.8125 16.6875 C-28.91089933 5.45499071 -15.45992234 0.00962036 0 0 Z " fill="#37506C" transform="translate(445.1875,672.8125)"/>
<path d="M0 0 C4.10379698 -0.14489234 8.20693967 -0.23393542 12.3125 -0.3125 C13.47974609 -0.35439453 14.64699219 -0.39628906 15.84960938 -0.43945312 C16.96787109 -0.45556641 18.08613281 -0.47167969 19.23828125 -0.48828125 C20.7857605 -0.52755737 20.7857605 -0.52755737 22.36450195 -0.56762695 C25 0 25 0 26.61938477 1.91308594 C28.52744591 6.17931496 30.21873977 10.50061488 31.8515625 14.87890625 C32.40935143 16.35559784 32.40935143 16.35559784 32.97840881 17.86212158 C34.19835708 21.09393512 35.41176962 24.32815921 36.625 27.5625 C38.32952402 32.08948911 40.0373314 36.61523418 41.74609375 41.140625 C42.17978775 42.29025223 42.61348175 43.43987946 43.06031799 44.62434387 C46.00318743 52.40959505 48.99995014 60.17219365 52.03515625 67.921875 C52.62910187 69.44185341 52.62910187 69.44185341 53.23504639 70.99253845 C54.75727391 74.88715105 56.27948126 78.78166307 57.81842041 82.66970825 C58.86928125 85.32519738 59.91011888 87.98442275 60.94921875 90.64453125 C61.41655174 91.81148529 61.41655174 91.81148529 61.89332581 93.00201416 C63.35336889 96.76520419 64.51017192 99.88861455 64 104 C63 105 63 105 60.59155273 105.11352539 C59.54942627 105.10828857 58.5072998 105.10305176 57.43359375 105.09765625 C56.30888672 105.09443359 55.18417969 105.09121094 54.02539062 105.08789062 C52.84138672 105.07951172 51.65738281 105.07113281 50.4375 105.0625 C49.24962891 105.05798828 48.06175781 105.05347656 46.83789062 105.04882812 C43.89187774 105.03699675 40.94596319 105.02051287 38 105 C37.20044999 103.48329636 36.41078612 101.96138002 35.625 100.4375 C35.18414062 99.59058594 34.74328125 98.74367188 34.2890625 97.87109375 C33 95 33 95 31 88 C18.46 88.33 5.92 88.66 -7 89 C-8.98 93.95 -10.96 98.9 -13 104 C-14 105 -14 105 -16.40844727 105.11352539 C-17.45057373 105.10828857 -18.4927002 105.10305176 -19.56640625 105.09765625 C-20.69111328 105.09443359 -21.81582031 105.09121094 -22.97460938 105.08789062 C-24.15861328 105.07951172 -25.34261719 105.07113281 -26.5625 105.0625 C-27.75037109 105.05798828 -28.93824219 105.05347656 -30.16210938 105.04882812 C-33.10812226 105.03699675 -36.05403681 105.02051287 -39 105 C-41.01370829 99.65953341 -38.55922217 95.43707831 -36.50390625 90.48828125 C-36.12387955 89.54306107 -35.74385284 88.59784088 -35.35231018 87.62397766 C-34.10032446 84.51545931 -32.83126284 81.41420369 -31.5625 78.3125 C-29.80536545 73.96458167 -28.0571352 69.61309867 -26.30859375 65.26171875 C-25.86374634 64.1581604 -25.41889893 63.05460205 -24.96057129 61.91760254 C-20.1694107 50.00302325 -15.62454506 37.99674874 -11.13235474 25.96670532 C-4.46472189 8.11509091 -4.46472189 8.11509091 0 0 Z " fill="#37506C" transform="translate(319,676)"/>
<path d="M0 0 C0.70548981 0.00202423 1.41097961 0.00404846 2.1378479 0.00613403 C3.24756454 0.00350555 3.24756454 0.00350555 4.37969971 0.00082397 C6.83686638 -0.00359453 9.29396168 -0.00065657 11.75112915 0.00271606 C13.45124322 0.00204302 15.1513572 0.001073 16.85147095 -0.00018311 C20.41926996 -0.00166008 23.98704398 0.00049445 27.55484009 0.00515747 C32.13851409 0.01085476 36.72212954 0.00757575 41.30580139 0.00158501 C44.81782476 -0.00202063 48.32983414 -0.00088201 51.84185791 0.0017128 C53.53243008 0.00238206 55.22300351 0.00155367 56.91357422 -0.00076675 C59.27222072 -0.00329332 61.6307711 0.00054735 63.9894104 0.00613403 C64.69490021 0.0041098 65.40039001 0.00208557 66.1272583 0 C70.94936644 0.02126585 70.94936644 0.02126585 72.06362915 1.13552856 C72.16262438 2.68508415 72.19442439 4.23906529 72.19644165 5.79177856 C72.19773071 6.73150513 72.19901978 7.67123169 72.2003479 8.63943481 C72.19648071 9.62814575 72.19261353 10.61685669 72.18862915 11.63552856 C72.19249634 12.6242395 72.19636353 13.61295044 72.2003479 14.63162231 C72.19905884 15.57134888 72.19776978 16.51107544 72.19644165 17.47927856 C72.19531372 18.34746216 72.19418579 19.21564575 72.19302368 20.11013794 C72.06362915 22.13552856 72.06362915 22.13552856 71.06362915 23.13552856 C69.46751934 23.22886562 67.86729487 23.25298229 66.26846313 23.24905396 C65.24748032 23.24897842 64.2264975 23.24890289 63.17457581 23.24882507 C62.06417435 23.24366379 60.95377289 23.2385025 59.8097229 23.23318481 C58.67913956 23.23176987 57.54855621 23.23035492 56.38371277 23.22889709 C52.7561585 23.22327875 49.12866491 23.21072314 45.50112915 23.19802856 C43.04865608 23.19301593 40.59618205 23.18845261 38.14370728 23.18435669 C32.11699102 23.17330336 26.09032039 23.15602644 20.06362915 23.13552856 C20.06362915 29.07552856 20.06362915 35.01552856 20.06362915 41.13552856 C22.43421509 41.123927 24.80480103 41.11232544 27.2472229 41.10037231 C29.53408677 41.09258161 31.82094919 41.08650493 34.1078186 41.08059692 C35.70157529 41.07555699 37.29532734 41.06872507 38.8890686 41.06008911 C41.17513168 41.04800858 43.46113382 41.04229701 45.7472229 41.03787231 C46.46389633 41.03271103 47.18056976 41.02754974 47.91896057 41.02223206 C49.63426587 41.02203594 51.34944181 41.07360849 53.06362915 41.13552856 C54.6856343 42.75753371 54.19353665 44.55575887 54.19644165 46.79177856 C54.19837524 48.20136841 54.19837524 48.20136841 54.2003479 49.63943481 C54.19648071 50.62814575 54.19261353 51.61685669 54.18862915 52.63552856 C54.19442993 54.11859497 54.19442993 54.11859497 54.2003479 55.63162231 C54.19905884 56.57134888 54.19776978 57.51107544 54.19644165 58.47927856 C54.19531372 59.34746216 54.19418579 60.21564575 54.19302368 61.11013794 C54.06362915 63.13552856 54.06362915 63.13552856 53.06362915 64.13552856 C50.61532489 64.2239665 48.19542316 64.25081608 45.7472229 64.23318481 C45.01616837 64.23176987 44.28511383 64.23035492 43.53190613 64.22889709 C41.18827283 64.22328265 38.84473376 64.21072778 36.50112915 64.19802856 C34.91584407 64.19301542 33.33055749 64.18845219 31.74526978 64.18435669 C27.85132372 64.17415777 23.95758238 64.15458543 20.06362915 64.13552856 C20.06362915 70.07552856 20.06362915 76.01552856 20.06362915 82.13552856 C21.60333374 82.13029175 23.14303833 82.12505493 24.72940063 82.11965942 C30.41901065 82.10161683 36.10861812 82.09009928 41.79824829 82.08059692 C44.26504949 82.075555 46.73184767 82.06872166 49.19863892 82.06008911 C52.73567444 82.04801732 56.2726706 82.04229901 59.8097229 82.03787231 C60.92012436 82.03271103 62.03052582 82.02754974 63.17457581 82.02223206 C64.70605003 82.02211876 64.70605003 82.02211876 66.26846313 82.02200317 C67.17225204 82.01978256 68.07604095 82.01756195 69.00721741 82.01527405 C71.06362915 82.13552856 71.06362915 82.13552856 72.06362915 83.13552856 C72.16262438 84.68508415 72.19442439 86.23906529 72.19644165 87.79177856 C72.19773071 88.73150513 72.19901978 89.67123169 72.2003479 90.63943481 C72.19648071 91.62814575 72.19261353 92.61685669 72.18862915 93.63552856 C72.19249634 94.6242395 72.19636353 95.61295044 72.2003479 96.63162231 C72.19905884 97.57134888 72.19776978 98.51107544 72.19644165 99.47927856 C72.19531372 100.34746216 72.19418579 101.21564575 72.19302368 102.11013794 C72.06362915 104.13552856 72.06362915 104.13552856 71.06362915 105.13552856 C68.66014629 105.23049564 66.28551933 105.26111718 63.88174438 105.24905396 C62.75498795 105.24927299 62.75498795 105.24927299 61.60546875 105.24949646 C59.11102456 105.2487972 56.61665412 105.24100421 54.1222229 105.23318481 C52.39729351 105.23132068 50.67236358 105.22989676 48.94743347 105.22889709 C44.39850412 105.22507154 39.84960648 105.21524094 35.3006897 105.20419312 C30.66242909 105.1939798 26.02416338 105.18939965 21.38589478 105.18435669 C12.27845893 105.1736187 3.17104667 105.15654183 -5.93637085 105.13552856 C-5.95949145 91.59288678 -5.97728449 78.05024966 -5.98818302 64.5075922 C-5.99341247 58.21990832 -6.00051124 51.9322379 -6.0118103 45.64456177 C-6.02263699 39.58215133 -6.02864722 33.51975387 -6.03124809 27.45733452 C-6.03310274 25.1387658 -6.0367241 22.82019783 -6.04210091 20.5016346 C-6.04930843 17.26638349 -6.05036191 14.03118674 -6.04989624 10.79592896 C-6.05349152 9.82704742 -6.05708679 8.85816589 -6.06079102 7.85992432 C-6.05941635 6.98347763 -6.05804169 6.10703094 -6.05662537 5.20402527 C-6.05754716 4.4380153 -6.05846895 3.67200533 -6.05941868 2.88278294 C-5.79479095 -0.87487742 -3.14584058 0.01387339 0 0 Z " fill="#364F6B" transform="translate(866.9363708496094,674.8644714355469)"/>
<path d="M0 0 C0.70548981 0.00202423 1.41097961 0.00404846 2.1378479 0.00613403 C3.24756454 0.00350555 3.24756454 0.00350555 4.37969971 0.00082397 C6.83686638 -0.00359453 9.29396168 -0.00065657 11.75112915 0.00271606 C13.45124322 0.00204302 15.1513572 0.001073 16.85147095 -0.00018311 C20.41926996 -0.00166008 23.98704398 0.00049445 27.55484009 0.00515747 C32.13851409 0.01085476 36.72212954 0.00757575 41.30580139 0.00158501 C44.81782476 -0.00202063 48.32983414 -0.00088201 51.84185791 0.0017128 C53.53243008 0.00238206 55.22300351 0.00155367 56.91357422 -0.00076675 C59.27222072 -0.00329332 61.6307711 0.00054735 63.9894104 0.00613403 C64.69490021 0.0041098 65.40039001 0.00208557 66.1272583 0 C70.94936644 0.02126585 70.94936644 0.02126585 72.06362915 1.13552856 C72.16262438 2.68508415 72.19442439 4.23906529 72.19644165 5.79177856 C72.19773071 6.73150513 72.19901978 7.67123169 72.2003479 8.63943481 C72.19648071 9.62814575 72.19261353 10.61685669 72.18862915 11.63552856 C72.19249634 12.6242395 72.19636353 13.61295044 72.2003479 14.63162231 C72.19905884 15.57134888 72.19776978 16.51107544 72.19644165 17.47927856 C72.19531372 18.34746216 72.19418579 19.21564575 72.19302368 20.11013794 C72.06362915 22.13552856 72.06362915 22.13552856 71.06362915 23.13552856 C69.46751934 23.22886562 67.86729487 23.25298229 66.26846313 23.24905396 C65.24748032 23.24897842 64.2264975 23.24890289 63.17457581 23.24882507 C62.06417435 23.24366379 60.95377289 23.2385025 59.8097229 23.23318481 C58.67913956 23.23176987 57.54855621 23.23035492 56.38371277 23.22889709 C52.7561585 23.22327875 49.12866491 23.21072314 45.50112915 23.19802856 C43.04865608 23.19301593 40.59618205 23.18845261 38.14370728 23.18435669 C32.11699102 23.17330336 26.09032039 23.15602644 20.06362915 23.13552856 C20.06362915 29.07552856 20.06362915 35.01552856 20.06362915 41.13552856 C22.43421509 41.123927 24.80480103 41.11232544 27.2472229 41.10037231 C29.53408677 41.09258161 31.82094919 41.08650493 34.1078186 41.08059692 C35.70157529 41.07555699 37.29532734 41.06872507 38.8890686 41.06008911 C41.17513168 41.04800858 43.46113382 41.04229701 45.7472229 41.03787231 C46.46389633 41.03271103 47.18056976 41.02754974 47.91896057 41.02223206 C49.63426587 41.02203594 51.34944181 41.07360849 53.06362915 41.13552856 C54.6856343 42.75753371 54.19353665 44.55575887 54.19644165 46.79177856 C54.19837524 48.20136841 54.19837524 48.20136841 54.2003479 49.63943481 C54.19648071 50.62814575 54.19261353 51.61685669 54.18862915 52.63552856 C54.19442993 54.11859497 54.19442993 54.11859497 54.2003479 55.63162231 C54.19905884 56.57134888 54.19776978 57.51107544 54.19644165 58.47927856 C54.19531372 59.34746216 54.19418579 60.21564575 54.19302368 61.11013794 C54.06362915 63.13552856 54.06362915 63.13552856 53.06362915 64.13552856 C50.61532489 64.2239665 48.19542316 64.25081608 45.7472229 64.23318481 C45.01616837 64.23176987 44.28511383 64.23035492 43.53190613 64.22889709 C41.18827283 64.22328265 38.84473376 64.21072778 36.50112915 64.19802856 C34.91584407 64.19301542 33.33055749 64.18845219 31.74526978 64.18435669 C27.85132372 64.17415777 23.95758238 64.15458543 20.06362915 64.13552856 C20.06362915 70.07552856 20.06362915 76.01552856 20.06362915 82.13552856 C21.60333374 82.13029175 23.14303833 82.12505493 24.72940063 82.11965942 C30.41901065 82.10161683 36.10861812 82.09009928 41.79824829 82.08059692 C44.26504949 82.075555 46.73184767 82.06872166 49.19863892 82.06008911 C52.73567444 82.04801732 56.2726706 82.04229901 59.8097229 82.03787231 C60.92012436 82.03271103 62.03052582 82.02754974 63.17457581 82.02223206 C64.70605003 82.02211876 64.70605003 82.02211876 66.26846313 82.02200317 C67.17225204 82.01978256 68.07604095 82.01756195 69.00721741 82.01527405 C71.06362915 82.13552856 71.06362915 82.13552856 72.06362915 83.13552856 C72.16262438 84.68508415 72.19442439 86.23906529 72.19644165 87.79177856 C72.19773071 88.73150513 72.19901978 89.67123169 72.2003479 90.63943481 C72.19648071 91.62814575 72.19261353 92.61685669 72.18862915 93.63552856 C72.19249634 94.6242395 72.19636353 95.61295044 72.2003479 96.63162231 C72.19905884 97.57134888 72.19776978 98.51107544 72.19644165 99.47927856 C72.19531372 100.34746216 72.19418579 101.21564575 72.19302368 102.11013794 C72.06362915 104.13552856 72.06362915 104.13552856 71.06362915 105.13552856 C68.66014629 105.23049564 66.28551933 105.26111718 63.88174438 105.24905396 C62.75498795 105.24927299 62.75498795 105.24927299 61.60546875 105.24949646 C59.11102456 105.2487972 56.61665412 105.24100421 54.1222229 105.23318481 C52.39729351 105.23132068 50.67236358 105.22989676 48.94743347 105.22889709 C44.39850412 105.22507154 39.84960648 105.21524094 35.3006897 105.20419312 C30.66242909 105.1939798 26.02416338 105.18939965 21.38589478 105.18435669 C12.27845893 105.1736187 3.17104667 105.15654183 -5.93637085 105.13552856 C-5.95949145 91.59288678 -5.97728449 78.05024966 -5.98818302 64.5075922 C-5.99341247 58.21990832 -6.00051124 51.9322379 -6.0118103 45.64456177 C-6.02263699 39.58215133 -6.02864722 33.51975387 -6.03124809 27.45733452 C-6.03310274 25.1387658 -6.0367241 22.82019783 -6.04210091 20.5016346 C-6.04930843 17.26638349 -6.05036191 14.03118674 -6.04989624 10.79592896 C-6.05349152 9.82704742 -6.05708679 8.85816589 -6.06079102 7.85992432 C-6.05941635 6.98347763 -6.05804169 6.10703094 -6.05662537 5.20402527 C-6.05754716 4.4380153 -6.05846895 3.67200533 -6.05941868 2.88278294 C-5.79479095 -0.87487742 -3.14584058 0.01387339 0 0 Z " fill="#364F6B" transform="translate(513.9363708496094,674.8644714355469)"/>
<path d="M0 0 C1.02367676 0.00161133 2.04735352 0.00322266 3.10205078 0.00488281 C11.34558524 0.13761218 18.29023596 1.3182194 26 4.375 C27.32064453 4.89513672 27.32064453 4.89513672 28.66796875 5.42578125 C32.64145184 7.10462647 36.36956679 9.03278503 40 11.375 C39.38955672 19.00554095 37.20378179 26.07689474 35 33.375 C33.38671875 34.109375 33.38671875 34.109375 31 34.375 C28.08203125 32.828125 28.08203125 32.828125 24.8125 30.625 C15.46352082 24.60750561 7.31846449 21.82950686 -4 23.375 C-6.39239375 24.51977625 -6.39239375 24.51977625 -8 26.375 C-8.69173454 30.48369858 -8.69173454 30.48369858 -8 34.375 C-4.51253053 37.59684396 -1.40736685 39.15995226 3.11328125 40.5234375 C4.27923828 40.88953125 5.44519531 41.255625 6.64648438 41.6328125 C9.07759647 42.37367351 11.50988185 43.11069599 13.94335938 43.84375 C24.62784444 47.21098166 33.31156504 52.21889239 39.03515625 62.17578125 C42.67210238 70.34622303 41.83039259 79.84869042 38.96875 88.12890625 C35.60137376 95.93633101 29.88917711 101.35765228 22.02734375 104.6015625 C5.66932078 110.23666831 -11.02005664 110.01866403 -26.7734375 102.54296875 C-30.97153204 100.34081039 -35.00520041 97.92472426 -39 95.375 C-40.5778125 94.4159375 -40.5778125 94.4159375 -42.1875 93.4375 C-42.785625 92.756875 -43.38375 92.07625 -44 91.375 C-43.60554357 85.97502745 -42.10676193 81.04815348 -40.4375 75.9375 C-40.20353516 75.20595703 -39.96957031 74.47441406 -39.72851562 73.72070312 C-39.15732778 71.93719821 -38.57936877 70.15586417 -38 68.375 C-33.68226401 68.89465672 -31.55083705 70.27740444 -28.3125 73.125 C-19.010279 80.7808102 -9.5094999 84.63422597 2.72265625 84.30078125 C5.95919709 83.9797585 8.9132758 83.40390807 12 82.375 C12.53347388 76.71708832 12.53347388 76.71708832 10.3125 71.6875 C4.11314847 66.4835373 -5.07681823 64.6171272 -12.6875 62.4375 C-21.66262579 59.72761903 -29.90518297 55.53007016 -35 47.375 C-38.84612637 39.93135619 -39.41993849 30.89416566 -37.34375 22.82421875 C-33.06196634 12.13821556 -24.69102685 5.72191481 -14.37890625 1.234375 C-9.57359861 0.01221583 -4.9413134 -0.00803074 0 0 Z " fill="#38516C" transform="translate(1000,673.625)"/>
<path d="M0 0 C3.179431 2.49941106 6.13396438 5.14843931 9 8 C8.1627844 12.6821595 5.28611287 14.73111332 1.75 17.625 C1.17636719 18.11484375 0.60273437 18.6046875 0.01171875 19.109375 C-3.17400826 21.76535697 -5.98944109 23.71843042 -10 25 C-10.49628906 24.52949219 -10.99257813 24.05898438 -11.50390625 23.57421875 C-17.93767906 17.67761103 -23.45429066 14.35895976 -32.375 14.64453125 C-38.80582054 15.51537153 -45.56753174 18.19815939 -50 23 C-56.08081965 32.76210017 -58.24307992 40.41401241 -57 52 C-54.11598449 61.19479484 -49.43317212 66.55224246 -41.09765625 71.01953125 C-34.76968535 73.85353049 -27.71855567 74.34424242 -21.1796875 71.98046875 C-16.40813772 69.73504247 -16.40813772 69.73504247 -12.53125 66.26953125 C-11 65 -11 65 -8.80078125 64.96484375 C-4.7328255 66.46834204 -1.61032879 68.93887717 1.8125 71.5625 C2.50537109 72.08263672 3.19824219 72.60277344 3.91210938 73.13867188 C5.61395663 74.41799154 7.30778964 75.70796014 9 77 C7.76300816 82.82732037 3.63045877 85.51903801 -1 89 C-14.20257095 97.4765551 -27.56630962 100.94846036 -43.125 98.25 C-52.5528672 96.06273481 -59.7300393 92.38669445 -67 86 C-67.92619141 85.21496094 -67.92619141 85.21496094 -68.87109375 84.4140625 C-79.65320736 74.56847992 -84.81521082 60.3251005 -85.47119141 45.95947266 C-85.69593364 30.18561512 -80.03995325 17.43685632 -69.9765625 5.625 C-50.87511463 -13.11051975 -22.04544177 -13.47221442 0 0 Z " fill="#38506C" transform="translate(792,682)"/>
<path d="M0 0 C0.83265381 0.00523682 1.66530762 0.01047363 2.52319336 0.01586914 C3.42231445 0.0190918 4.32143555 0.02231445 5.24780273 0.02563477 C6.66609375 0.03820312 6.66609375 0.03820312 8.11303711 0.05102539 C9.06243164 0.05553711 10.01182617 0.06004883 10.98999023 0.06469727 C13.3435708 0.0765243 15.69701292 0.09384445 18.05053711 0.11352539 C20.88969827 5.63505064 23.39290101 11.18663727 25.68725586 16.95336914 C26.01216507 17.76093155 26.33707428 18.56849396 26.67182922 19.40052795 C27.69707459 21.9494325 28.71798088 24.5000402 29.73803711 27.05102539 C30.76910011 29.62688161 31.80115562 32.20231774 32.83638 34.77650452 C33.47770812 36.37139645 34.11660755 37.96726754 34.75285339 39.56419373 C35.97225376 43.09885657 35.97225376 43.09885657 38.05053711 46.11352539 C38.45369141 45.10563965 38.8568457 44.09775391 39.2722168 43.05932617 C41.75561523 36.85083008 44.23901367 30.64233398 46.72241211 24.43383789 C47.18979797 23.26519196 47.18979797 23.26519196 47.66662598 22.07293701 C48.28388321 20.53003678 48.90147405 18.98726997 49.51940918 17.44464111 C50.80773821 14.22751911 52.09165759 11.00906955 53.36108398 7.78442383 C53.71750977 6.87982422 54.07393555 5.97522461 54.44116211 5.04321289 C54.88250488 3.91375244 54.88250488 3.91375244 55.33276367 2.76147461 C56.05053711 1.11352539 56.05053711 1.11352539 57.05053711 0.11352539 C63.65053711 0.11352539 70.25053711 0.11352539 77.05053711 0.11352539 C77.05053711 26.18352539 77.05053711 52.25352539 77.05053711 79.11352539 C71.44053711 79.11352539 65.83053711 79.11352539 60.05053711 79.11352539 C58.01930636 77.08229464 58.79384093 72.93583673 58.73413086 70.14086914 C58.71334976 69.34322647 58.69256866 68.5455838 58.67115784 67.72377014 C58.60557553 65.16627928 58.54673744 62.60868259 58.48803711 60.05102539 C58.44486012 58.32119657 58.4012461 56.5913786 58.35717773 54.86157227 C58.24988539 50.61233279 58.14864285 46.36298649 58.05053711 42.11352539 C55.76519119 47.17125817 53.56188796 52.22684199 51.61303711 57.42602539 C49.22511218 63.7147221 46.66420117 69.91540777 44.05053711 76.11352539 C39.76053711 76.11352539 35.47053711 76.11352539 31.05053711 76.11352539 C27.1995369 68.85163929 24.26338252 61.26705951 21.30053711 53.61352539 C20.78916688 52.30088956 20.27745079 50.98838842 19.76538086 49.67602539 C18.52370158 46.4898295 17.28552563 43.30231928 16.05053711 40.11352539 C16.02548096 41.25942139 16.0004248 42.40531738 15.97460938 43.5859375 C15.88070605 47.82206137 15.78044436 52.05801467 15.67822266 56.29394531 C15.63480891 58.13016786 15.59313872 59.96643247 15.55322266 61.80273438 C15.49567542 64.4364085 15.43193713 67.0698696 15.36694336 69.70336914 C15.34187462 70.94243263 15.34187462 70.94243263 15.31629944 72.20652771 C15.16440882 77.99965368 15.16440882 77.99965368 14.05053711 79.11352539 C11.37322331 79.21333753 8.72749536 79.25232414 6.05053711 79.23852539 C4.92518555 79.24432617 4.92518555 79.24432617 3.77709961 79.25024414 C-1.82285236 79.24013592 -1.82285236 79.24013592 -2.94946289 78.11352539 C-3.04974085 75.7154339 -3.08564965 73.34613041 -3.07885742 70.94750977 C-3.08060974 70.1979451 -3.08236206 69.44838043 -3.08416748 68.67610168 C-3.08858609 66.1864697 -3.08564799 63.69690816 -3.08227539 61.20727539 C-3.08294843 59.48474107 -3.08391845 57.76220684 -3.08517456 56.03967285 C-3.08665155 52.42479551 -3.08449696 48.80994284 -3.07983398 45.19506836 C-3.07413669 40.55086046 -3.0774157 35.90671035 -3.08340645 31.26250458 C-3.08701205 27.70415813 -3.08587348 24.14582549 -3.08327866 20.58747864 C-3.08260938 18.87457777 -3.08343782 17.16167567 -3.08575821 15.44877625 C-3.08828472 13.05899717 -3.08444419 10.66931298 -3.07885742 8.27954102 C-3.08088165 7.56470047 -3.08290588 6.84985992 -3.08499146 6.11335754 C-3.05915671 0.17814751 -3.05915671 0.17814751 0 0 Z " fill="#38516C" transform="translate(498.949462890625,570.886474609375)"/>
<path d="M0 0 C4.94359645 4.16533626 9.75359117 8.63397888 10.68359375 15.26171875 C10.99332818 21.24053178 10.1320963 24.62731767 6.2109375 29.18359375 C-5.92396819 41.60250787 -18.58643468 45.31942604 -35.75 45.5625 C-54.95999289 45.48126721 -73.88885408 39.91220735 -88.20703125 26.60546875 C-91.23411009 23.31153999 -92.26538306 20.73745292 -92.1171875 16.2421875 C-90.67080492 9.83677893 -84.59663928 5.82938022 -79.4375 2.375 C-56.39422148 -11.40701535 -23.10640555 -15.96364331 0 0 Z " fill="#3FC1C9" transform="translate(707.625,158.9375)"/>
<path d="M0 0 C5.04958528 -0.09997656 10.09857603 -0.17198266 15.14892578 -0.21972656 C16.86159317 -0.23965999 18.57419414 -0.26681705 20.28662109 -0.30175781 C32.33801448 -0.54123611 43.54322048 -0.52854872 53.5 7.25 C59.3980164 12.9395626 62.11846554 19.95129063 62.4375 28.0625 C62.37534435 35.03947191 60.54349365 39.72741343 56 45 C53.72414421 47.07197313 51.38336211 49.05312692 49 51 C49.39904541 51.74161377 49.79809082 52.48322754 50.20922852 53.24731445 C51.68394562 55.99944406 53.14955298 58.75617311 54.60913086 61.51635742 C55.24288248 62.71034223 55.88023729 63.90242171 56.52124023 65.0925293 C57.44157053 66.80273253 58.34794609 68.52042236 59.25390625 70.23828125 C59.80377197 71.26993408 60.3536377 72.30158691 60.92016602 73.36450195 C62 76 62 76 61 79 C54.4 79 47.8 79 41 79 C32.28571429 62 32.28571429 62 30 54 C26.04 54 22.08 54 18 54 C18 62.25 18 70.5 18 79 C15.050625 79.020625 12.10125 79.04125 9.0625 79.0625 C7.66656616 79.07615601 7.66656616 79.07615601 6.24243164 79.09008789 C5.14983032 79.09383423 5.14983032 79.09383423 4.03515625 79.09765625 C3.2862915 79.10289307 2.53742676 79.10812988 1.76586914 79.11352539 C0 79 0 79 -1 78 C-1.10025884 75.63765248 -1.13618937 73.30453142 -1.12939453 70.94165039 C-1.13114685 70.20344559 -1.13289917 69.46524078 -1.13470459 68.70466614 C-1.13912366 66.25230594 -1.13618464 63.80001725 -1.1328125 61.34765625 C-1.1334856 59.64993781 -1.13445567 57.95221946 -1.13571167 56.25450134 C-1.13718878 52.69089849 -1.13503395 49.12732065 -1.13037109 45.5637207 C-1.12467812 40.98911322 -1.12794999 36.41456446 -1.13394356 31.83995914 C-1.13755252 28.3321844 -1.13640896 24.82442364 -1.13381577 21.31664848 C-1.1331472 19.62969391 -1.13397247 17.94273809 -1.13629532 16.25578499 C-1.13882685 13.89973706 -1.13497396 11.54378491 -1.12939453 9.18774414 C-1.13141876 8.48584961 -1.13344299 7.78395508 -1.13552856 7.06079102 C-1.11426364 2.22852728 -1.11426364 2.22852728 0 0 Z " fill="#38516C" transform="translate(979,571)"/>
<path d="M0 0 C0.79341797 -0.00386719 1.58683594 -0.00773438 2.40429688 -0.01171875 C8.31086933 -0.00163067 8.31086933 -0.00163067 9.4375 1.125 C9.5258967 3.5006852 9.55280305 5.84708674 9.53515625 8.22265625 C9.5337413 8.93151474 9.53232635 9.64037323 9.53086853 10.37071228 C9.52525443 12.64301712 9.51269963 14.91522475 9.5 17.1875 C9.49498681 18.72460796 9.49042359 20.26171745 9.48632812 21.79882812 C9.4761297 25.57428667 9.45655732 29.34953404 9.4375 33.125 C18.6775 33.125 27.9175 33.125 37.4375 33.125 C37.42589844 30.82660156 37.41429687 28.52820313 37.40234375 26.16015625 C37.39455291 23.94279112 37.38847631 21.72542749 37.38256836 19.50805664 C37.3775286 17.96280234 37.3706968 16.41755284 37.36206055 14.87231445 C37.34997924 12.65574971 37.34426827 10.43924782 37.33984375 8.22265625 C37.33468246 7.5278566 37.32952118 6.83305695 37.32420349 6.11720276 C37.32400723 4.4527067 37.37560871 2.78834501 37.4375 1.125 C38.9595959 -0.3970959 40.31960082 -0.00459521 42.4375 -0.0078125 C43.241875 -0.00910156 44.04625 -0.01039063 44.875 -0.01171875 C45.720625 -0.00785156 46.56625 -0.00398437 47.4375 0 C48.7059375 -0.00580078 48.7059375 -0.00580078 50 -0.01171875 C50.804375 -0.01042969 51.60875 -0.00914062 52.4375 -0.0078125 C53.18 -0.00668457 53.9225 -0.00555664 54.6875 -0.00439453 C56.4375 0.125 56.4375 0.125 57.4375 1.125 C57.53777795 3.52309149 57.57368676 5.89239498 57.56689453 8.29101562 C57.56952301 9.41536263 57.56952301 9.41536263 57.57220459 10.56242371 C57.5766232 13.05205569 57.5736851 15.54161723 57.5703125 18.03125 C57.57098554 19.75378432 57.57195556 21.47631855 57.57321167 23.19885254 C57.57468865 26.81372988 57.57253407 30.42858255 57.56787109 34.04345703 C57.5621738 38.68766493 57.5654528 43.33181504 57.57144356 47.97602081 C57.57504916 51.53436726 57.57391059 55.0926999 57.57131577 58.65104675 C57.57064649 60.36394762 57.57147493 62.07684972 57.57379532 63.78974915 C57.57632183 66.17952822 57.5724813 68.56921241 57.56689453 70.95898438 C57.56891876 71.67382492 57.57094299 72.38866547 57.57302856 73.12516785 C57.55176269 78.01073731 57.55176269 78.01073731 56.4375 79.125 C55.10706375 79.2233721 53.77156656 79.25578592 52.4375 79.2578125 C51.633125 79.25910156 50.82875 79.26039063 50 79.26171875 C49.154375 79.25785156 48.30875 79.25398437 47.4375 79.25 C46.591875 79.25386719 45.74625 79.25773438 44.875 79.26171875 C44.070625 79.26042969 43.26625 79.25914062 42.4375 79.2578125 C41.695 79.25668457 40.9525 79.25555664 40.1875 79.25439453 C38.4375 79.125 38.4375 79.125 37.4375 78.125 C37.34982888 76.05237924 37.33054127 73.97679706 37.33984375 71.90234375 C37.34234131 70.76788818 37.34483887 69.63343262 37.34741211 68.46459961 C37.35651611 67.01190674 37.36562012 65.55921387 37.375 64.0625 C37.4059375 57.1634375 37.4059375 57.1634375 37.4375 50.125 C28.1975 50.125 18.9575 50.125 9.4375 50.125 C9.47709518 59.2948291 9.47709518 59.2948291 9.52758789 68.46459961 C9.53008545 69.59905518 9.53258301 70.73351074 9.53515625 71.90234375 C9.54301147 73.65405884 9.54301147 73.65405884 9.55102539 75.44116211 C9.4375 78.125 9.4375 78.125 8.4375 79.125 C7.09482587 79.21131874 5.74775678 79.23206473 4.40234375 79.22265625 C3.59345703 79.21943359 2.78457031 79.21621094 1.95117188 79.21289062 C1.10103516 79.20451172 0.25089844 79.19613281 -0.625 79.1875 C-1.47900391 79.18298828 -2.33300781 79.17847656 -3.21289062 79.17382812 C-5.32945663 79.16200373 -7.44598685 79.14406769 -9.5625 79.125 C-11.04238792 76.16522416 -10.69260399 73.16521991 -10.67602539 69.92138672 C-10.67617142 69.1798233 -10.67631744 68.43825989 -10.6764679 67.67422485 C-10.67577 65.21768287 -10.66798334 62.76121627 -10.66015625 60.3046875 C-10.65829163 58.6036076 -10.65686794 56.90252716 -10.65586853 55.20144653 C-10.65204678 50.71993533 -10.6422194 46.23845643 -10.63116455 41.75695801 C-10.62094308 37.1856327 -10.61636933 32.61430219 -10.61132812 28.04296875 C-10.60059685 19.07029829 -10.58352451 10.09765183 -10.5625 1.125 C-7.26572112 -0.52338944 -3.61933956 -0.01772738 0 0 Z " fill="#39526D" transform="translate(756.5625,570.875)"/>
<path d="M0 0 C0.74362793 0.01047363 1.48725586 0.02094727 2.25341797 0.03173828 C3.46191406 0.04140625 3.46191406 0.04140625 4.69482422 0.05126953 C5.95746094 0.07640625 5.95746094 0.07640625 7.24560547 0.10205078 C8.51984375 0.11558594 8.51984375 0.11558594 9.81982422 0.12939453 C11.9202043 0.15299431 14.02043991 0.18886595 16.12060547 0.22705078 C19.37246306 6.43910309 21.96360314 12.75051534 24.42138672 19.31298828 C24.82085007 20.36878082 25.22031342 21.42457336 25.63188171 22.51235962 C26.90295178 25.87409736 28.16825165 29.23796986 29.43310547 32.60205078 C30.68470366 35.92010612 31.93751573 39.23769914 33.19113159 42.55499268 C34.00670081 44.71480561 34.82062401 46.87524087 35.63284302 49.03631592 C37.48501467 53.95475239 39.35986215 58.85982722 41.32128906 63.73583984 C41.65541306 64.57104156 41.98953705 65.40624329 42.33378601 66.26675415 C42.95185602 67.80376535 43.57768093 69.33769027 44.21272278 70.86776733 C46.23116512 75.89537183 46.23116512 75.89537183 45.12060547 79.22705078 C38.85060547 79.22705078 32.58060547 79.22705078 26.12060547 79.22705078 C21.12060547 69.60205078 21.12060547 69.60205078 21.12060547 66.22705078 C11.55060547 66.22705078 1.98060547 66.22705078 -7.87939453 66.22705078 C-8.20939453 67.54705078 -8.53939453 68.86705078 -8.87939453 70.22705078 C-10.13232632 73.26629095 -11.51533353 76.23491698 -12.87939453 79.22705078 C-19.14939453 79.22705078 -25.41939453 79.22705078 -31.87939453 79.22705078 C-31.87939453 74.49912529 -31.60840049 73.09582786 -29.62939453 69.10205078 C-26.48717843 62.49103993 -24.08890618 55.71986494 -21.69580078 48.80908203 C-19.42756363 42.32941389 -16.97201065 36.07665252 -14.06298828 29.85986328 C-11.52672971 24.21815279 -9.60708101 18.33513646 -7.59033203 12.49267578 C-7.25775391 11.54001831 -7.25775391 11.54001831 -6.91845703 10.56811523 C-6.28302011 8.74660726 -5.65524323 6.92243249 -5.02783203 5.09814453 C-3.14032819 0.37938493 -3.14032819 0.37938493 0 0 Z " fill="#38516C" transform="translate(920.87939453125,570.77294921875)"/>
<path d="M0 0 C6.27 0 12.54 0 19 0 C20.08796875 2.81660156 21.1759375 5.63320313 22.296875 8.53515625 C23.01057827 10.38216191 23.72428256 12.22916717 24.43798828 14.07617188 C25.9850898 18.08066755 27.53012497 22.08595237 29.07373047 26.09179688 C32.62539309 35.30353059 36.18868339 44.50923553 39.8359375 53.68359375 C40.67108612 55.79580074 41.50543348 57.90832222 42.33947754 60.02096558 C42.8611113 61.33516245 43.3867195 62.64778906 43.91638184 63.95877075 C44.64407182 65.76028746 45.35759714 67.56750671 46.0703125 69.375 C46.47008301 70.37273437 46.86985352 71.37046875 47.28173828 72.3984375 C48 75 48 75 47 79 C40.73 79 34.46 79 28 79 C23 68.25 23 68.25 23 66 C13.43 66 3.86 66 -6 66 C-6.99 69.63 -7.98 73.26 -9 77 C-11 79 -11 79 -12.97119141 79.22705078 C-14.1494751 79.21134033 -14.1494751 79.21134033 -15.3515625 79.1953125 C-16.62773437 79.18564453 -16.62773437 79.18564453 -17.9296875 79.17578125 C-19.26386719 79.15064453 -19.26386719 79.15064453 -20.625 79.125 C-21.5221875 79.11597656 -22.419375 79.10695313 -23.34375 79.09765625 C-25.56276586 79.0740497 -27.78125077 79.0411231 -30 79 C-29.38106192 75.52775737 -28.49044307 72.36187521 -27.25 69.0625 C-25.63312692 64.7255444 -24.08363164 60.37145401 -22.5625 56 C-20.68991695 50.73264216 -18.5512676 45.69270117 -16.18359375 40.6328125 C-13.70337696 35.1157626 -11.81291743 29.36962665 -9.8515625 23.65234375 C-7.01093249 15.48327082 -3.72851303 7.80386448 0 0 Z " fill="#38516C" transform="translate(309,571)"/>
<path d="M0 0 C0.74886475 0.00523682 1.49772949 0.01047363 2.26928711 0.01586914 C3.07817383 0.0190918 3.88706055 0.02231445 4.72045898 0.02563477 C5.5705957 0.03401367 6.42073242 0.04239258 7.29663086 0.05102539 C8.15063477 0.05553711 9.00463867 0.06004883 9.88452148 0.06469727 C12.00108749 0.07652166 14.11761771 0.0944577 16.23413086 0.11352539 C17.4088253 2.46291427 17.43447975 4.06425744 17.55053711 6.68383789 C17.59243164 7.57973633 17.63432617 8.47563477 17.67749023 9.39868164 C17.71680664 10.33583008 17.75612305 11.27297852 17.79663086 12.23852539 C17.83981445 13.1834082 17.88299805 14.12829102 17.92749023 15.10180664 C18.03372158 17.43889631 18.13576262 19.77609369 18.23413086 22.11352539 C18.79583984 21.44708008 19.35754883 20.78063477 19.9362793 20.09399414 C37.32071631 -0.0761843 37.32071631 -0.0761843 46.14819336 -1.34741211 C50.97275507 -1.49622439 55.52360315 -0.89806299 60.23413086 0.11352539 C60.23413086 4.11352539 60.23413086 4.11352539 58.51147461 6.19165039 C57.73932617 6.90836914 56.96717773 7.62508789 56.17163086 8.36352539 C52.53904327 11.83125376 49.18505835 15.3740478 45.94506836 19.20727539 C43.63273403 21.78357482 41.05885163 24.0382237 38.42163086 26.27758789 C36.95432899 28.13749049 36.95432899 28.13749049 37.45703125 30.87133789 C38.3031036 34.40129104 39.55120752 36.75819138 41.48022461 39.82446289 C42.14868408 40.89752686 42.81714355 41.97059082 43.50585938 43.07617188 C43.8599588 43.63408417 44.21405823 44.19199646 44.57888794 44.76681519 C45.68010503 46.50187717 46.76888676 48.24420744 47.85498047 49.98876953 C51.04906788 55.10885914 54.2834506 60.20231982 57.55444336 65.27368164 C58.02567627 66.00989746 58.49690918 66.74611328 58.98242188 67.50463867 C59.8375921 68.83624499 60.7022183 70.16184147 61.57763672 71.48022461 C62.70678711 73.23461914 62.70678711 73.23461914 64.23413086 76.11352539 C63.73913086 77.59852539 63.73913086 77.59852539 63.23413086 79.11352539 C44.92294985 81.21126779 44.92294985 81.21126779 39.51538086 76.99243164 C37.86455148 74.20846719 36.53393114 71.41939075 35.29663086 68.43139648 C33.0355131 63.4987099 30.04051037 58.9372301 27.23413086 54.30102539 C26.08548123 52.3586777 24.93942744 50.41479128 23.79663086 48.46899414 C23.05606445 47.21058716 23.05606445 47.21058716 22.30053711 45.92675781 C21.94862305 45.32839111 21.59670898 44.73002441 21.23413086 44.11352539 C20.24413086 44.77352539 19.25413086 45.43352539 18.23413086 46.11352539 C17.90819456 48.57753503 17.76926938 50.80424173 17.75756836 53.27368164 C17.73419907 54.33128944 17.73419907 54.33128944 17.71035767 55.41026306 C17.66276257 57.66550585 17.63504888 59.92043797 17.60913086 62.17602539 C17.57268475 64.43496498 17.53210806 66.69372671 17.48648071 68.95249939 C17.45918016 70.35910167 17.43786112 71.76583459 17.42294312 73.17262268 C17.34477528 78.00288097 17.34477528 78.00288097 16.23413086 79.11352539 C14.81842963 79.2000415 13.39853586 79.22057443 11.98022461 79.21118164 C11.1262207 79.20795898 10.2722168 79.20473633 9.39233398 79.20141602 C8.49450195 79.19303711 7.59666992 79.1846582 6.67163086 79.17602539 C5.76993164 79.17151367 4.86823242 79.16700195 3.93920898 79.16235352 C1.70411772 79.15052764 -0.53084351 79.13404759 -2.76586914 79.11352539 C-2.78899307 68.96086388 -2.80678448 58.80820859 -2.81768131 48.65552616 C-2.82291003 43.94172806 -2.83000748 39.22794792 -2.84130859 34.51416016 C-2.85213787 29.96897135 -2.85814606 25.42379987 -2.86074638 20.87859917 C-2.86260056 19.14057581 -2.86622103 17.40255345 -2.8715992 15.66453743 C-2.87881017 13.23873944 -2.87986006 10.81301393 -2.87939453 8.38720703 C-2.88298981 7.6614447 -2.88658508 6.93568237 -2.89028931 6.18792725 C-2.87774214 0.18500623 -2.87774214 0.18500623 0 0 Z " fill="#39516D" transform="translate(669.765869140625,570.886474609375)"/>
<path d="M0 0 C0.74886475 0.00523682 1.49772949 0.01047363 2.26928711 0.01586914 C3.07817383 0.0190918 3.88706055 0.02231445 4.72045898 0.02563477 C5.5705957 0.03401367 6.42073242 0.04239258 7.29663086 0.05102539 C8.15063477 0.05553711 9.00463867 0.06004883 9.88452148 0.06469727 C12.00108749 0.07652166 14.11761771 0.0944577 16.23413086 0.11352539 C16.23555588 0.73469238 16.2369809 1.35585938 16.2384491 1.99584961 C16.25819953 8.48555143 16.31258787 14.97431944 16.38671875 21.46362305 C16.40985583 23.88250011 16.42428433 26.3014773 16.4296875 28.72045898 C16.43900788 32.20627942 16.48006991 35.69053416 16.52709961 39.17602539 C16.52316696 40.25029785 16.51923431 41.32457031 16.5151825 42.43139648 C16.64226735 49.03342372 17.53214569 54.19853982 22.23413086 59.11352539 C26.2542329 61.50185764 29.25475691 61.3453597 33.82006836 60.79321289 C37.85094351 59.6583063 39.06010424 57.62001993 41.23413086 54.11352539 C42.21516374 51.17042676 42.38634773 49.16383509 42.43945312 46.09130859 C42.45939835 45.07047684 42.47934357 44.04964508 42.49989319 42.99787903 C42.51660568 41.89780014 42.53331818 40.79772125 42.55053711 39.66430664 C42.57131821 38.53655319 42.5920993 37.40879974 42.61351013 36.24687195 C42.67895933 32.63998579 42.73786929 29.0330261 42.79663086 25.42602539 C42.83982047 22.98265837 42.8834349 20.53929883 42.92749023 18.09594727 C43.03463606 12.10188224 43.13591677 6.10774315 43.23413086 0.11352539 C49.50413086 0.11352539 55.77413086 0.11352539 62.23413086 0.11352539 C62.40849875 7.68990618 62.53482575 15.26509311 62.61865234 22.84301758 C62.65363329 25.41516493 62.70123523 27.98717537 62.76220703 30.55883789 C63.42848895 59.40492549 63.42848895 59.40492549 53.28540039 71.42236328 C47.25614927 77.71997618 38.30539058 80.20469468 29.79663086 80.67602539 C21.09539165 80.31085037 11.95836879 76.88459122 5.65991211 70.77368164 C-2.13483269 61.69760893 -3.0726678 52.60319015 -2.99633789 40.99243164 C-2.99587967 39.85192856 -2.99542145 38.71142548 -2.99494934 37.53636169 C-2.99194149 35.14027864 -2.98409948 32.74419729 -2.97167969 30.34814453 C-2.95330792 26.66374879 -2.95117099 22.979603 -2.95141602 19.29516602 C-2.94650469 16.9650857 -2.94067806 14.63500709 -2.93383789 12.30493164 C-2.93272507 11.19775284 -2.93161224 10.09057404 -2.9304657 8.94984436 C-2.92408585 7.93466232 -2.91770599 6.91948029 -2.91113281 5.87353516 C-2.90732101 4.97611099 -2.90350922 4.07868683 -2.89958191 3.15406799 C-2.73088516 0.57964739 -2.58628473 0.16626882 0 0 Z " fill="#37506B" transform="translate(591.765869140625,569.886474609375)"/>
<path d="M0 0 C-34.50456402 25.70070537 -73.1516967 40.2507508 -116.4375 40.1875 C-117.19633484 40.18689575 -117.95516968 40.1862915 -118.73699951 40.18566895 C-135.80900685 40.14870191 -151.54752173 38.65864911 -168 34 C-169.03898438 33.72542969 -170.07796875 33.45085938 -171.1484375 33.16796875 C-187.02685276 28.69833772 -201.90550298 21.45669821 -216 13 C-217.32493564 12.31679595 -218.6546322 11.64203403 -220 11 C-216.13948401 9.71316134 -214.81151473 10.68337606 -211 12 C-208.20543175 12.5348322 -205.43606501 13.01554372 -202.625 13.4375 C-201.80193359 13.56310303 -200.97886719 13.68870605 -200.13085938 13.81811523 C-136.25827753 23.38354563 -71.12082548 22.55873557 -9.48706055 1.40136719 C-8.52582275 1.07297852 -7.56458496 0.74458984 -6.57421875 0.40625 C-5.73463623 0.11041016 -4.89505371 -0.18542969 -4.0300293 -0.49023438 C-2 -1 -2 -1 0 0 Z " fill="#41C1C9" transform="translate(779,487)"/>
<path d="M0 0 C8.25 0 16.5 0 25 0 C25 34.65 25 69.3 25 105 C16.75 105 8.5 105 0 105 C-1.52838931 103.47161069 -1.12592254 102.10764732 -1.12698364 99.97619629 C-1.12980347 99.10960892 -1.13262329 98.24302155 -1.13552856 97.35017395 C-1.13350433 96.3922142 -1.1314801 95.43425446 -1.12939453 94.44726562 C-1.13114685 93.44410812 -1.13289917 92.44095062 -1.13470459 91.40739441 C-1.13912516 88.07366228 -1.13618439 84.73998271 -1.1328125 81.40625 C-1.13348548 79.10078928 -1.13445545 76.79532864 -1.13571167 74.48986816 C-1.13718892 69.65095343 -1.13503321 64.81205713 -1.13037109 59.97314453 C-1.1246738 53.75505355 -1.12795266 47.53700572 -1.13394356 41.31891632 C-1.13754843 36.55616935 -1.13641092 31.7934327 -1.13381577 27.03068542 C-1.13314629 24.73723851 -1.13397562 22.44379068 -1.13629532 20.15034485 C-1.13882064 16.95111594 -1.13498295 13.75195797 -1.12939453 10.55273438 C-1.13141876 9.59477463 -1.13344299 8.63681488 -1.13552856 7.64982605 C-1.13270874 6.78323868 -1.12988892 5.91665131 -1.12698364 5.02380371 C-1.12660662 4.2664669 -1.12622959 3.5091301 -1.12584114 2.72884369 C-1 1 -1 1 0 0 Z " fill="#37506C" transform="translate(819,676)"/>
<path d="M0 0 C0.97484848 0.00222061 1.94969696 0.00444122 2.9540863 0.00672913 C4.05515213 0.00680466 5.15621796 0.00688019 6.29064941 0.00695801 C8.08749428 0.01469994 8.08749428 0.01469994 9.92063904 0.02259827 C11.14000656 0.02401321 12.35937408 0.02542816 13.61569214 0.02688599 C17.52856349 0.03250485 21.4413786 0.04506055 25.35423279 0.05775452 C27.99941426 0.06276709 30.64459662 0.06733041 33.28977966 0.07142639 C39.79045253 0.08248041 46.29108311 0.09975768 52.79173279 0.12025452 C52.79173279 6.06025452 52.79173279 12.00025452 52.79173279 18.12025452 C46.85173279 18.12025452 40.91173279 18.12025452 34.79173279 18.12025452 C34.7969696 19.93259583 34.80220642 21.74493713 34.80760193 23.61219788 C34.82370003 29.58730501 34.83520528 35.56240604 34.84354496 41.53752804 C34.84877281 45.16171411 34.85586866 48.78587682 34.86717224 52.41004944 C34.87800463 55.90485426 34.88401037 59.39963655 34.88661003 62.89445686 C34.8893683 64.88264841 34.89717966 66.87083083 34.9050293 68.85900879 C34.90510483 70.06017838 34.90518036 71.26134796 34.90525818 72.49891663 C34.90747879 73.56258957 34.9096994 74.62626251 34.9119873 75.72216797 C34.79173279 78.12025452 34.79173279 78.12025452 33.79173279 79.12025452 C32.46129654 79.21862662 31.12579934 79.25104044 29.79173279 79.25306702 C28.98735779 79.25435608 28.18298279 79.25564514 27.35423279 79.25697327 C26.50860779 79.25310608 25.66298279 79.24923889 24.79173279 79.24525452 C23.94610779 79.2491217 23.10048279 79.25298889 22.22923279 79.25697327 C21.42485779 79.2556842 20.62048279 79.25439514 19.79173279 79.25306702 C19.04923279 79.25193909 18.30673279 79.25081116 17.54173279 79.24964905 C15.79173279 79.12025452 15.79173279 79.12025452 14.79173279 78.12025452 C14.69786898 76.24844511 14.67429475 74.37307392 14.6782074 72.49891663 C14.67828293 71.29774704 14.67835846 70.09657745 14.67843628 68.85900879 C14.68359756 67.55174332 14.68875885 66.24447784 14.69407654 64.89759827 C14.6959408 63.5538132 14.69736467 62.21002745 14.69836426 60.86624146 C14.70218877 57.32343175 14.71201847 53.78066282 14.72306824 50.23786926 C14.73328379 46.62510225 14.73786219 43.01232867 14.74290466 39.39955139 C14.75364081 32.30643413 14.77123707 25.21335127 14.79173279 18.12025452 C8.85173279 18.12025452 2.91173279 18.12025452 -3.20826721 18.12025452 C-3.22889221 15.33587952 -3.24951721 12.55150452 -3.27076721 9.68275452 C-3.27987122 8.80433899 -3.28897522 7.92592346 -3.2983551 7.02088928 C-3.30549812 5.05379477 -3.25858614 3.08671831 -3.20826721 1.12025452 C-2.20826721 0.12025452 -2.20826721 0.12025452 0 0 Z " fill="#3B536E" transform="translate(830.2082672119141,570.8797454833984)"/>
<path d="M0 0 C0.804375 -0.00128906 1.60875 -0.00257813 2.4375 -0.00390625 C3.283125 -0.00003906 4.12875 0.00382813 5 0.0078125 C6.2684375 0.00201172 6.2684375 0.00201172 7.5625 -0.00390625 C8.366875 -0.00261719 9.17125 -0.00132812 10 0 C10.7425 0.00112793 11.485 0.00225586 12.25 0.00341797 C14 0.1328125 14 0.1328125 15 1.1328125 C15.09386381 3.0046219 15.11743804 4.8799931 15.11352539 6.75415039 C15.11344986 7.95531998 15.11337433 9.15648956 15.11329651 10.39405823 C15.10813522 11.7013237 15.10297394 13.00858917 15.09765625 14.35546875 C15.09579198 15.69925382 15.09436812 17.04303957 15.09336853 18.38682556 C15.08954402 21.92963527 15.07971432 25.4724042 15.06866455 29.01519775 C15.05844899 32.62796477 15.0538706 36.24073834 15.04882812 39.85351562 C15.03809198 46.9466313 15.02101636 54.03971924 15 61.1328125 C15.87325928 61.12757568 16.74651855 61.12233887 17.64624023 61.11694336 C20.87589273 61.09993499 24.10552245 61.08737881 27.33520508 61.07788086 C28.73495228 61.0728417 30.1346942 61.06601034 31.53442383 61.05737305 C33.54245777 61.0452893 35.55052957 61.04011443 37.55859375 61.03515625 C39.37315063 61.02730103 39.37315063 61.02730103 41.22436523 61.01928711 C44 61.1328125 44 61.1328125 45 62.1328125 C45.09981214 64.8101263 45.13879875 67.45585425 45.125 70.1328125 C45.13080078 71.25816406 45.13080078 71.25816406 45.13671875 72.40625 C45.12661053 78.00620197 45.12661053 78.00620197 44 79.1328125 C42.50129952 79.23112396 40.99801461 79.26079706 39.49609375 79.26220703 C38.05955444 79.26693527 38.05955444 79.26693527 36.59399414 79.27175903 C35.55235107 79.2697348 34.51070801 79.26771057 33.4375 79.265625 C32.37587646 79.26658173 31.31425293 79.26753845 30.22045898 79.26852417 C27.97086528 79.26920614 25.72126963 79.26735069 23.47167969 79.26318359 C20.01492929 79.2578356 16.55830883 79.26312804 13.1015625 79.26953125 C10.92187471 79.26887047 8.742187 79.26758932 6.5625 79.265625 C5.52085693 79.26764923 4.47921387 79.26967346 3.40600586 79.27175903 C2.44831299 79.26860687 1.49062012 79.26545471 0.50390625 79.26220703 C-0.34357178 79.26141144 -1.1910498 79.26061584 -2.06420898 79.25979614 C-4 79.1328125 -4 79.1328125 -5 78.1328125 C-5.10027795 75.73472101 -5.13618676 73.36541752 -5.12939453 70.96679688 C-5.13114685 70.21723221 -5.13289917 69.46766754 -5.13470459 68.69538879 C-5.1391232 66.20575681 -5.1361851 63.71619527 -5.1328125 61.2265625 C-5.13348554 59.50402818 -5.13445556 57.78149395 -5.13571167 56.05895996 C-5.13718865 52.44408262 -5.13503407 48.82922995 -5.13037109 45.21435547 C-5.1246738 40.57014757 -5.1279528 35.92599746 -5.13394356 31.28179169 C-5.13754916 27.72344524 -5.13641059 24.1651126 -5.13381577 20.60676575 C-5.13314649 18.89386488 -5.13397493 17.18096278 -5.13629532 15.46806335 C-5.13882183 13.07828428 -5.1349813 10.68860009 -5.12939453 8.29882812 C-5.13141876 7.58398758 -5.13344299 6.86914703 -5.13552856 6.13264465 C-5.10886821 0.00776087 -5.10886821 0.00776087 0 0 Z " fill="#39526D" transform="translate(373,570.8671875)"/>
<path d="M0 0 C0.804375 -0.00128906 1.60875 -0.00257813 2.4375 -0.00390625 C3.283125 -0.00003906 4.12875 0.00382813 5 0.0078125 C6.2684375 0.00201172 6.2684375 0.00201172 7.5625 -0.00390625 C8.366875 -0.00261719 9.17125 -0.00132812 10 0 C10.7425 0.00112793 11.485 0.00225586 12.25 0.00341797 C14 0.1328125 14 0.1328125 15 1.1328125 C15.09498646 3.56677269 15.12558417 5.97224202 15.11352539 8.40649414 C15.11367142 9.16741867 15.11381744 9.9283432 15.1139679 10.71232605 C15.11326862 13.23923548 15.10547555 15.76607212 15.09765625 18.29296875 C15.09579212 20.0403184 15.0943682 21.78766857 15.09336853 23.53501892 C15.08954293 28.14313184 15.07971229 32.75121345 15.06866455 37.35931396 C15.05845134 42.05789771 15.0538711 46.75648649 15.04882812 51.45507812 C15.03809005 60.68100337 15.02101313 69.90690534 15 79.1328125 C11.85418577 79.16169764 8.70840531 79.17957173 5.5625 79.1953125 C4.66466797 79.20369141 3.76683594 79.21207031 2.84179688 79.22070312 C1.56079102 79.22553711 1.56079102 79.22553711 0.25390625 79.23046875 C-0.53685303 79.23570557 -1.3276123 79.24094238 -2.14233398 79.24633789 C-4 79.1328125 -4 79.1328125 -5 78.1328125 C-5.10027795 75.73472101 -5.13618676 73.36541752 -5.12939453 70.96679688 C-5.13114685 70.21723221 -5.13289917 69.46766754 -5.13470459 68.69538879 C-5.1391232 66.20575681 -5.1361851 63.71619527 -5.1328125 61.2265625 C-5.13348554 59.50402818 -5.13445556 57.78149395 -5.13571167 56.05895996 C-5.13718865 52.44408262 -5.13503407 48.82922995 -5.13037109 45.21435547 C-5.1246738 40.57014757 -5.1279528 35.92599746 -5.13394356 31.28179169 C-5.13754916 27.72344524 -5.13641059 24.1651126 -5.13381577 20.60676575 C-5.13314649 18.89386488 -5.13397493 17.18096278 -5.13629532 15.46806335 C-5.13882183 13.07828428 -5.1349813 10.68860009 -5.12939453 8.29882812 C-5.13141876 7.58398758 -5.13344299 6.86914703 -5.13552856 6.13264465 C-5.10886821 0.00776087 -5.10886821 0.00776087 0 0 Z " fill="#39526D" transform="translate(435,570.8671875)"/>
<path d="M0 0 C3.57623788 1.9137306 5.69762236 4.09286708 7 8 C7.50062692 12.84212927 7.74256635 16.72702911 5.25 21 C1.28944312 24.520495 -1.51038025 25.51282731 -6.96875 25.390625 C-10.63819116 24.68496324 -12.42047665 22.64094058 -15 20 C-17.68761942 15.96857086 -17.92537664 12.73667363 -17 8 C-12.78227219 1.0135797 -8.04246028 -1.22795954 0 0 Z " fill="#EFF3F3" transform="translate(781,825)"/>
<path d="M0 0 C3.3177317 2.09272307 6.22959308 4.45918616 8 8 C8.39231417 12.70777 8.47336758 15.07079697 6.3125 19.3125 C2.97686767 23.18904568 0.69034923 24.71827513 -4.375 25.5625 C-9.2143014 24.81157392 -11.74360418 22.55075928 -15 19 C-16.95412988 15.09174024 -16.31881168 10.40277139 -15.375 6.25 C-11.98715024 0.70624584 -6.29996112 -1.64768214 0 0 Z " fill="#F0F3F4" transform="translate(393,825)"/>
<path d="M0 0 C0.66 0 1.32 0 2 0 C3.57039005 4.66181068 5.13687008 9.32490957 6.69970703 13.98925781 C7.23215614 15.57653441 7.76568065 17.16345069 8.30029297 18.75 C9.06759689 21.02771108 9.83105112 23.30668093 10.59375 25.5859375 C10.83436157 26.29744965 11.07497314 27.00896179 11.32287598 27.74203491 C13 32.77225659 13 32.77225659 13 35 C5.08 35 -2.84 35 -11 35 C-9.77446656 29.4850995 -8.67396244 24.65883607 -6.8359375 19.43359375 C-6.43632812 18.28955078 -6.03671875 17.14550781 -5.625 15.96679688 C-5.2125 14.80212891 -4.8 13.63746094 -4.375 12.4375 C-3.95476562 11.23802734 -3.53453125 10.03855469 -3.1015625 8.80273438 C-2.07225134 5.86685823 -1.03830116 2.93270619 0 0 Z " fill="#EEEFF0" transform="translate(330,708)"/>
<path d="M0 0 C2.866875 -0.0825 5.73375 -0.165 8.6875 -0.25 C9.58170654 -0.28641602 10.47591309 -0.32283203 11.3972168 -0.36035156 C15.44692845 -0.41666694 17.50103852 -0.31241573 21.01953125 1.890625 C24.72089066 5.8329013 24.08407783 8.78717455 24 14 C23.34 14 22.68 14 22 14 C21.67 14.99 21.34 15.98 21 17 C16.41927074 19.10240158 12.07259926 19.24866262 7.125 19.125 C4.77375 19.08375 2.4225 19.0425 0 19 C0 12.73 0 6.46 0 0 Z " fill="#F2F2F3" transform="translate(998,589)"/>
<path d="M0 0 C12 0 12 0 15.25 1.5625 C17.6502204 4.90566413 17.58527499 6.97623447 17 11 C15.6875 12.9375 15.6875 12.9375 14 14 C13.01 14 12.02 14 11 14 C13.31 17.3 15.62 20.6 18 24 C17.01 24.33 16.02 24.66 15 25 C14.55269531 24.36191406 14.10539063 23.72382812 13.64453125 23.06640625 C13.03996094 22.24011719 12.43539062 21.41382813 11.8125 20.5625 C11.22082031 19.73878906 10.62914062 18.91507813 10.01953125 18.06640625 C7.68067027 15.67325837 6.2779964 15.31138135 3 15 C3 18.3 3 21.6 3 25 C2.01 25 1.02 25 0 25 C0 16.75 0 8.5 0 0 Z " fill="#5EC9D0" transform="translate(671,825)"/>
<path d="M0 0 C12 0 12 0 15.25 2.1875 C17.15903797 5.25559673 17.81092266 6.48600182 17 10 C15.125 12.3125 15.125 12.3125 13 14 C12.34 14 11.68 14 11 14 C11.433125 14.62648438 11.86625 15.25296875 12.3125 15.8984375 C12.869375 16.71570313 13.42625 17.53296875 14 18.375 C14.556875 19.18710937 15.11375 19.99921875 15.6875 20.8359375 C17 23 17 23 17 25 C15.1484375 24.75 15.1484375 24.75 13 24 C11.7265625 22.1875 11.7265625 22.1875 10.625 20 C8.61926994 16.4266682 8.61926994 16.4266682 4.6875 15 C3.800625 15 2.91375 15 2 15 C2 18.3 2 21.6 2 25 C1.34 25 0.68 25 0 25 C0 16.75 0 8.5 0 0 Z " fill="#52C6CD" transform="translate(867,825)"/>
<path d="M0 0 C12 0 12 0 15.25 1.5625 C17 4 17 4 17.625 7.5 C17 11 17 11 15.0625 13.4375 C10.79922201 15.61264183 7.75340242 15.28378522 3 15 C3 18.3 3 21.6 3 25 C2.01 25 1.02 25 0 25 C0 16.75 0 8.5 0 0 Z " fill="#3FC1C9" transform="translate(619,825)"/>
<path d="M0 0 C2.24487536 2.24487536 2.73391254 3.69913932 3.7265625 6.68359375 C4.0359375 7.61107422 4.3453125 8.53855469 4.6640625 9.49414062 C4.98117187 10.46544922 5.29828125 11.43675781 5.625 12.4375 C5.94984375 13.40494141 6.2746875 14.37238281 6.609375 15.36914062 C9 22.6063058 9 22.6063058 9 26 C3.39 26 -2.22 26 -8 26 C-7.26530906 21.59185434 -6.65897654 19.0632061 -4.8984375 15.2109375 C-2.89362414 10.27735331 -1.51140615 5.10195476 0 0 Z " fill="#EFF0F0" transform="translate(317,595)"/>
<path d="M0 0 C2.2534872 2.2534872 2.73648451 3.71974454 3.7265625 6.71875 C4.0359375 7.65074219 4.3453125 8.58273437 4.6640625 9.54296875 C4.98117187 10.51878906 5.29828125 11.49460937 5.625 12.5 C5.94984375 13.47582031 6.2746875 14.45164062 6.609375 15.45703125 C9 22.71930804 9 22.71930804 9 25 C3.39 25 -2.22 25 -8 25 C-2.6875 2.6875 -2.6875 2.6875 0 0 Z " fill="#EFF0F1" transform="translate(927,596)"/>
<path d="M0 0 C3.57623788 1.9137306 5.69762236 4.09286708 7 8 C7.50062692 12.84212927 7.74256635 16.72702911 5.25 21 C1.28944312 24.520495 -1.51038025 25.51282731 -6.96875 25.390625 C-10.63819116 24.68496324 -12.42047665 22.64094058 -15 20 C-17.68761942 15.96857086 -17.92537664 12.73667363 -17 8 C-12.78227219 1.0135797 -8.04246028 -1.22795954 0 0 Z M-12.5625 4.375 C-14.82928292 8.51434272 -14.69907959 12.39648652 -14 17 C-12.87150077 20.2863782 -12.87150077 20.2863782 -10 22 C-6.50165907 22.76102189 -3.49430839 22.79595716 0 22 C2.70892426 20.2401002 3.3569118 18.95755876 5 16 C5.59626815 12.34785761 5.27796555 10.58240402 3.6875 7.25 C1.74275568 4.65700757 0.14876462 3.18194062 -3.12109375 2.6640625 C-6.77766935 2.60240018 -9.29804724 2.62334242 -12.5625 4.375 Z " fill="#53C6CD" transform="translate(781,825)"/>
<path d="M0 0 C2.57587822 1.40995439 3.95125517 2.7975993 6 5 C6 5.99 6 6.98 6 8 C5.34 8 4.68 8 4 8 C3.56558594 7.35160156 3.13117188 6.70320312 2.68359375 6.03515625 C1.17210058 3.79441002 1.17210058 3.79441002 -1.33984375 3.43359375 C-6.87940436 3.41682703 -6.87940436 3.41682703 -11.6875 5.9375 C-13.5166116 10.20542707 -13.30398876 13.57666557 -12 18 C-10.5771736 20.25463249 -10.5771736 20.25463249 -8 21 C-3.69432661 21.52084759 -0.71822227 21.47881485 3 19 C3.33 17.68 3.66 16.36 4 15 C0.7 15 -2.6 15 -6 15 C-6 14.34 -6 13.68 -6 13 C-1.71 13 2.58 13 7 13 C7 14.98 7 16.96 7 19 C6.34 19 5.68 19 5 19 C4.773125 19.61875 4.54625 20.2375 4.3125 20.875 C3 23 3 23 0.9375 24.3125 C-3.20919592 25.2830033 -6.90145642 25.210411 -11 24 C-14.7764761 20.3179358 -16.17287892 17.3726832 -16.375 12.1875 C-16.34624549 8.2021243 -16.22068831 7.28629835 -13.6875 4 C-9.0606615 0.55677135 -5.81515655 -1.09513306 0 0 Z " fill="#52C6CD" transform="translate(426,825)"/>
<path d="M0 0 C3.3177317 2.09272307 6.22959308 4.45918616 8 8 C8.39231417 12.70777 8.47336758 15.07079697 6.3125 19.3125 C2.97686767 23.18904568 0.69034923 24.71827513 -4.375 25.5625 C-9.2143014 24.81157392 -11.74360418 22.55075928 -15 19 C-16.95412988 15.09174024 -16.31881168 10.40277139 -15.375 6.25 C-11.98715024 0.70624584 -6.29996112 -1.64768214 0 0 Z M-11.5625 4.625 C-13.37204715 7.61468659 -13.93115699 9.48900627 -14 13 C-12.72720597 16.63655436 -11.73264029 19.26735971 -9 22 C-4.64203473 22.73631633 -0.9636487 22.4326586 3.0625 20.625 C5.62770976 17.14955452 5.65928122 14.66057035 5.40234375 10.41796875 C5.07113373 7.81263575 5.07113373 7.81263575 3.625 4.875 C0.1347499 2.38196421 -2.43584637 2.3522663 -6.65234375 2.58203125 C-9.16225689 2.87580262 -9.16225689 2.87580262 -11.5625 4.625 Z " fill="#54C7CE" transform="translate(393,825)"/>
<path d="M0 0 C5.28 0 10.56 0 16 0 C16 0.66 16 1.32 16 2 C11.71 2 7.42 2 3 2 C3 4.97 3 7.94 3 11 C6.96 11 10.92 11 15 11 C15 11.66 15 12.32 15 13 C11.04 13 7.08 13 3 13 C3 15.97 3 18.94 3 22 C7.29 22 11.58 22 16 22 C16 22.99 16 23.98 16 25 C13.52076199 25.02685095 11.0418116 25.04676547 8.5625 25.0625 C7.85544922 25.07087891 7.14839844 25.07925781 6.41992188 25.08789062 C4.61306441 25.09653588 2.80612397 25.05220011 1 25 C0 24 0 24 -0.11352539 21.68334961 C-0.10828857 20.68311768 -0.10305176 19.68288574 -0.09765625 18.65234375 C-0.09443359 17.57275391 -0.09121094 16.49316406 -0.08789062 15.38085938 C-0.07951172 14.24455078 -0.07113281 13.10824219 -0.0625 11.9375 C-0.05798828 10.79732422 -0.05347656 9.65714844 -0.04882812 8.48242188 C-0.0369976 5.65492582 -0.0190615 2.82745655 0 0 Z " fill="#59C8CF" transform="translate(645,825)"/>
<path d="M0 0 C5.28 0 10.56 0 16 0 C16 0.66 16 1.32 16 2 C11.71 2 7.42 2 3 2 C3 4.97 3 7.94 3 11 C6.96 11 10.92 11 15 11 C15 11.66 15 12.32 15 13 C11.04 13 7.08 13 3 13 C3 15.97 3 18.94 3 22 C7.29 22 11.58 22 16 22 C16 22.99 16 23.98 16 25 C13.52076199 25.02685095 11.0418116 25.04676547 8.5625 25.0625 C7.85544922 25.07087891 7.14839844 25.07925781 6.41992188 25.08789062 C4.61306441 25.09653588 2.80612397 25.05220011 1 25 C0 24 0 24 -0.11352539 21.68334961 C-0.10828857 20.68311768 -0.10305176 19.68288574 -0.09765625 18.65234375 C-0.09443359 17.57275391 -0.09121094 16.49316406 -0.08789062 15.38085938 C-0.07951172 14.24455078 -0.07113281 13.10824219 -0.0625 11.9375 C-0.05798828 10.79732422 -0.05347656 9.65714844 -0.04882812 8.48242188 C-0.0369976 5.65492582 -0.0190615 2.82745655 0 0 Z " fill="#5AC8CF" transform="translate(566,825)"/>
<path d="M0 0 C2.9375 2.25 2.9375 2.25 5 5 C5 6.32 5 7.64 5 9 C4.360625 8.175 3.72125 7.35 3.0625 6.5 C-0.56402636 3.53957032 -2.3652621 3.29101747 -6.90625 3.59375 C-9.17071109 3.91936343 -9.17071109 3.91936343 -11.5625 5.4375 C-13.66155794 9.17929894 -13.66568876 12.79687211 -13 17 C-11.27773504 20.24849977 -11.27773504 20.24849977 -8 21 C-2.66704568 21.343491 -2.66704568 21.343491 2 19 C2.33 18.01 2.66 17.02 3 16 C3.99 16 4.98 16 6 16 C4.64995627 20.41832494 3.00638894 22.64842388 -1 25 C-7.36477987 25.90925427 -7.36477987 25.90925427 -10.77734375 24.01171875 C-13.6326805 21.75677065 -15.99580082 19.51469714 -17 16 C-17.52720041 11.33051067 -17.75658076 8.40231116 -14.8125 4.625 C-10.18577345 0.30672189 -6.33524654 -0.79190582 0 0 Z " fill="#53C6CE" transform="translate(537,825)"/>
<path d="M0 0 C2.4375 1.875 2.4375 1.875 4 4 C4 4.66 4 5.32 4 6 C3.443125 5.690625 2.88625 5.38125 2.3125 5.0625 C-1.66690632 3.23412412 -4.79788161 2.59929387 -9 4 C-8.67 5.65 -8.34 7.3 -8 9 C-7.39671875 9.15855469 -6.7934375 9.31710937 -6.171875 9.48046875 C-2.22942968 10.63140843 0.53823414 11.60266658 3.6875 14.3125 C5 17 5 17 4.5 20.1875 C3 23 3 23 1.25 24.375 C-1.7650459 25.21251275 -3.87930687 25.4458133 -7 25 C-9.875 22.625 -9.875 22.625 -12 20 C-12 19.34 -12 18.68 -12 18 C-11.01 18 -10.02 18 -9 18 C-8.566875 18.495 -8.13375 18.99 -7.6875 19.5 C-5.97790291 21.3314563 -5.97790291 21.3314563 -2.8125 21.1875 C-1.884375 21.125625 -0.95625 21.06375 0 21 C1.01111093 17.95086772 1.01111093 17.95086772 0 15 C-2.01805081 14.2390375 -2.01805081 14.2390375 -4.375 13.625 C-7.25037021 12.709277 -8.83824923 12.14272127 -11.125 10.125 C-12.30304622 7.26403061 -12.10635396 5.8765203 -11 3 C-7.79244676 -0.57765553 -4.61218615 -0.57652327 0 0 Z " fill="#52C6CD" transform="translate(934,825)"/>
<path d="M0 0 C0 0.66 0 1.32 0 2 C0.99 2.33 1.98 2.66 3 3 C3.33 3.99 3.66 4.98 4 6 C2.68 5.67 1.36 5.34 0 5 C0 4.34 0 3.68 0 3 C-2.64 3.33 -5.28 3.66 -8 4 C-8 5.65 -8 7.3 -8 9 C-7.30132812 9.26554688 -6.60265625 9.53109375 -5.8828125 9.8046875 C-4.51769531 10.33449219 -4.51769531 10.33449219 -3.125 10.875 C-1.76761719 11.39707031 -1.76761719 11.39707031 -0.3828125 11.9296875 C2 13 2 13 4 15 C4.4375 17.875 4.4375 17.875 4 21 C1.29894179 24.11030946 -0.44355276 24.90063442 -4.5 25.625 C-8.19839967 24.96457149 -8.67398697 24.70595608 -10.9375 22 C-11.618125 21.01 -12.29875 20.02 -13 19 C-12.01 18.67 -11.02 18.34 -10 18 C-9.649375 18.495 -9.29875 18.99 -8.9375 19.5 C-6.05625711 21.73063966 -3.52990974 21.19980621 0 21 C0 18.69 0 16.38 0 14 C-1.5778125 13.87625 -1.5778125 13.87625 -3.1875 13.75 C-7.33675198 12.93375371 -9.15835073 12.09998102 -12 9 C-12.625 6.5 -12.625 6.5 -12 4 C-8.2996981 -0.14882334 -5.40488073 -0.42391221 0 0 Z " fill="#4FC5CD" transform="translate(468,825)"/>
<path d="M0 0 C0.99 0 1.98 0 3 0 C3.33 6.93 3.66 13.86 4 21 C7.63 21 11.26 21 15 21 C15.33 14.07 15.66 7.14 16 0 C16.66 0 17.32 0 18 0 C18.08703823 3.43734063 18.14040272 6.87439837 18.1875 10.3125 C18.21263672 11.28896484 18.23777344 12.26542969 18.26367188 13.27148438 C18.27333984 14.20927734 18.28300781 15.14707031 18.29296875 16.11328125 C18.3086792 16.97735596 18.32438965 17.84143066 18.34057617 18.73168945 C17.92385564 21.50713778 17.21724623 22.33017393 15 24 C11.37671381 25.20776206 8.80388473 25.40040892 5 25 C2.43093956 22.43093956 0.11231599 19.85937308 -0.11352539 16.12060547 C-0.10828857 15.37697754 -0.10305176 14.63334961 -0.09765625 13.8671875 C-0.09443359 13.06152344 -0.09121094 12.25585938 -0.08789062 11.42578125 C-0.07951172 10.58402344 -0.07113281 9.74226562 -0.0625 8.875 C-0.05798828 8.02550781 -0.05347656 7.17601562 -0.04882812 6.30078125 C-0.03702874 4.20049091 -0.01909306 2.1002367 0 0 Z " fill="#50C5CD" transform="translate(798,825)"/>
<path d="M0 0 C0.99 0 1.98 0 3 0 C4.70702749 2.24047358 6.06475383 4.60927209 7.5 7.03125 C7.995 7.6809375 8.49 8.330625 9 9 C9.99 9 10.98 9 12 9 C12.268125 8.443125 12.53625 7.88625 12.8125 7.3125 C14.11616551 4.77378296 15.37008027 2.34708441 17 0 C17.99 0 18.98 0 20 0 C20 0.66 20 1.32 20 2 C19.34 2 18.68 2 18 2 C17.731875 2.556875 17.46375 3.11375 17.1875 3.6875 C16 6 16 6 14.25 8.4375 C12.72475962 10.89856656 12.72475962 10.89856656 13.5 13.375 C15.13530275 16.23677981 16.97179366 18.8360663 18.9765625 21.44921875 C20 23 20 23 20 25 C19.01 25 18.02 25 17 25 C15.39453125 23.03125 15.39453125 23.03125 13.8125 20.5 C13.28269531 19.6646875 12.75289062 18.829375 12.20703125 17.96875 C11.80871094 17.3190625 11.41039062 16.669375 11 16 C7.79685307 17.38135711 7.00850272 17.98698021 5 21.0625 C3 24 3 24 0.75 24.875 C0.1725 24.91625 -0.405 24.9575 -1 25 C0.34906849 22.65688105 1.68319782 20.3928705 3.3828125 18.28515625 C4.75776454 16.56834456 5.97132437 14.94505042 7 13 C6.33794487 8.47595659 2.8734269 5.40274238 0 2 C0 1.34 0 0.68 0 0 Z " fill="#53C6CD" transform="translate(590,825)"/>
<path d="M0 0 C0.66 0 1.32 0 2 0 C2.07347656 1.77117188 2.07347656 1.77117188 2.1484375 3.578125 C2.22348879 5.13543937 2.29903561 6.69272991 2.375 8.25 C2.4059375 9.02730469 2.436875 9.80460938 2.46875 10.60546875 C2.72658242 16.07379907 2.72658242 16.07379907 5 21 C6.27875 21.061875 7.5575 21.12375 8.875 21.1875 C9.59429688 21.22230469 10.31359375 21.25710938 11.0546875 21.29296875 C12.01761719 21.14794922 12.01761719 21.14794922 13 21 C15.0140956 17.9788566 15.26836596 17.19339983 15.4140625 13.76953125 C15.45273437 12.96708984 15.49140625 12.16464844 15.53125 11.33789062 C15.57765625 10.08782227 15.57765625 10.08782227 15.625 8.8125 C15.66367187 7.96751953 15.70234375 7.12253906 15.7421875 6.25195312 C15.83636279 4.16832476 15.91926675 2.08419247 16 0 C16.66 0 17.32 0 18 0 C18.17499733 3.2284763 18.28106618 6.45572926 18.375 9.6875 C18.45041016 11.05551758 18.45041016 11.05551758 18.52734375 12.45117188 C18.67148491 19.05764176 18.67148491 19.05764176 16.76293945 21.73608398 C14.06138552 24.09514583 11.95754378 25.00819331 8.4375 25.6875 C4.69411511 24.93882302 3.34801433 23.90221488 1.0144043 20.93188477 C-0.949616 17.19150147 -0.51411777 13.2442061 -0.3125 9.125 C-0.28994141 8.24585938 -0.26738281 7.36671875 -0.24414062 6.4609375 C-0.18559748 4.30654993 -0.09592783 2.1530469 0 0 Z " fill="#45C2CA" transform="translate(894,825)"/>
<path d="M0 0 C6.27 0 12.54 0 19 0 C18.67 0.99 18.34 1.98 18 3 C15.69 3 13.38 3 11 3 C11 10.26 11 17.52 11 25 C10.01 25 9.02 25 8 25 C8 17.41 8 9.82 8 2 C5.36 2 2.72 2 0 2 C0 1.34 0 0.68 0 0 Z " fill="#5FCAD0" transform="translate(946,825)"/>
<path d="M0 0 C6.27 0 12.54 0 19 0 C18.67 0.99 18.34 1.98 18 3 C15.69 3 13.38 3 11 3 C11 10.26 11 17.52 11 25 C10.01 25 9.02 25 8 25 C8 17.41 8 9.82 8 2 C5.36 2 2.72 2 0 2 C0 1.34 0 0.68 0 0 Z " fill="#5FCAD0" transform="translate(839,825)"/>
<path d="M0 0 C6.27 0 12.54 0 19 0 C18.67 0.99 18.34 1.98 18 3 C15.69 3 13.38 3 11 3 C11 10.26 11 17.52 11 25 C10.01 25 9.02 25 8 25 C8 17.41 8 9.82 8 2 C5.36 2 2.72 2 0 2 C0 1.34 0 0.68 0 0 Z " fill="#5FCAD0" transform="translate(696,825)"/>
<path d="M0 0 C8.625 0.75 8.625 0.75 12 3 C12.3125 5.5 12.3125 5.5 12 8 C8.69756694 11.30243306 4.55028914 10.64997776 0 11 C0 7.37 0 3.74 0 0 Z " fill="#E5F0F1" transform="translate(869,827)"/>
<path d="M0 0 C2.8842454 0.34485543 3.8207818 0.78255407 5.703125 3.06640625 C6.21359375 3.89011719 6.7240625 4.71382812 7.25 5.5625 C8.03117188 6.80193359 8.03117188 6.80193359 8.828125 8.06640625 C9.21484375 8.70449219 9.6015625 9.34257813 10 10 C12.62884653 7.51325328 14.80727673 5.33355951 16.625 2.1875 C17.07875 1.465625 17.5325 0.74375 18 0 C18.99 0 19.98 0 21 0 C19.96900147 2.18651378 18.8776949 4.18199778 17.52734375 6.19140625 C13.33314939 12.44662978 12.02854212 17.49342146 12 25 C11.01 25 10.02 25 9 25 C9.020625 24.27296875 9.04125 23.5459375 9.0625 22.796875 C8.87232198 13.52569647 5.43500126 8.2920632 0 1 C0 0.67 0 0.34 0 0 Z " fill="#52C6CD" transform="translate(735,825)"/>
<path d="M0 0 C0.99 0 1.98 0 3 0 C3 7.26 3 14.52 3 22 C6.63 22 10.26 22 14 22 C14.33 22.99 14.66 23.98 15 25 C10.05 25 5.1 25 0 25 C0 16.75 0 8.5 0 0 Z " fill="#5FCAD0" transform="translate(355,825)"/>
<path d="M0 0 C3.3 0 6.6 0 10 0 C11.35439668 2.70879335 11.06501451 5.00933268 11 8 C7.36576791 10.32590854 4.22911669 10.16265833 0 10 C0 6.7 0 3.4 0 0 Z " fill="#EEF3F3" transform="translate(622,828)"/>
<path d="M0 0 C6.8359375 -0.1953125 6.8359375 -0.1953125 9 0 C11 2 11 2 11.25 4.5 C11 7 11 7 9 9 C5.98173347 9.27240673 3.03629378 9.08675125 0 9 C0 6.03 0 3.06 0 0 Z " fill="#F4F4F4" transform="translate(674,828)"/>
<path d="M0 0 C6.27 0 12.54 0 19 0 C19 0.66 19 1.32 19 2 C16.36 2 13.72 2 11 2 C11 9.59 11 17.18 11 25 C10.34 25 9.68 25 9 25 C9 17.41 9 9.82 9 2 C6.03 2 3.06 2 0 2 C0 1.34 0 0.68 0 0 Z " fill="#4CC4CC" transform="translate(479,825)"/>
<path d="M0 0 C5.05510556 0.44603873 7.40166738 2.64700824 11 6 C12.60516741 9.21033482 12.48548312 12.51746772 12 16 C10.25364203 19.14344435 8.53137274 21.46862726 6 24 C3.375 24.125 3.375 24.125 1 24 C1.78375 23.38125 2.5675 22.7625 3.375 22.125 C6.9034753 19.57163449 6.9034753 19.57163449 8.30078125 15.7578125 C8.30464844 14.88898437 8.30851562 14.02015625 8.3125 13.125 C8.32925781 12.26132812 8.34601563 11.39765625 8.36328125 10.5078125 C7.92797912 7.5028236 7.08465517 6.18161588 5 4 C1.91222828 2.71991738 1.91222828 2.71991738 -1 2 C-0.67 1.34 -0.34 0.68 0 0 Z " fill="#48C3CB" transform="translate(389,825)"/>
<path d="M0 0 C0.99 0 1.98 0 3 0 C3 8.25 3 16.5 3 25 C2.01 25 1.02 25 0 25 C0 16.75 0 8.5 0 0 Z " fill="#51C6CD" transform="translate(507,825)"/>
<path d="M0 0 C0.99 0.33 1.98 0.66 3 1 C3 8.92 3 16.84 3 25 C2.01 25 1.02 25 0 25 C0 16.75 0 8.5 0 0 Z " fill="#5FCAD0" transform="translate(443,825)"/>
<path d="M0 0 C12 0 12 0 15.25 1.875 C17 4 17 4 17 6 C16.34 6 15.68 6 15 6 C14.67 6.99 14.34 7.98 14 9 C13.67 7.02 13.34 5.04 13 3 C12.30132813 3.02320313 11.60265625 3.04640625 10.8828125 3.0703125 C9.97273437 3.08835937 9.06265625 3.10640625 8.125 3.125 C7.22007812 3.14820313 6.31515625 3.17140625 5.3828125 3.1953125 C3 3 3 3 1 1 C1 8.59 1 16.18 1 24 C1.66 24.33 2.32 24.66 3 25 C2.01 25 1.02 25 0 25 C0 16.75 0 8.5 0 0 Z " fill="#72CFD5" transform="translate(619,825)"/>
<path d="M0 0 C3.3 0 6.6 0 10 0 C10 0.33 10 0.66 10 1 C7.36 1 4.72 1 2 1 C2 4.63 2 8.26 2 12 C3.65 12 5.3 12 7 12 C7 12.33 7 12.66 7 13 C5.35 13 3.7 13 2 13 C2 16.63 2 20.26 2 24 C1.34 24 0.68 24 0 24 C0 16.08 0 8.16 0 0 Z " fill="#40C1C9" transform="translate(867,826)"/>
<path d="M0 0 C10.8437307 -0.77825818 10.8437307 -0.77825818 15.25 2.1875 C17.10519625 5.1690654 17.49051479 6.56639645 17 10 C16.01 9.67 15.02 9.34 14 9 C13.87625 8.360625 13.7525 7.72125 13.625 7.0625 C13.41875 6.381875 13.2125 5.70125 13 5 C10.50965614 3.70339566 10.50965614 3.70339566 8 3 C8 2.67 8 2.34 8 2 C5.36 1.67 2.72 1.34 0 1 C0 0.67 0 0.34 0 0 Z " fill="#61CAD1" transform="translate(867,825)"/>
<path d="M0 0 C2.86724686 0.57344937 3.8614515 0.8614515 6 3 C7.98821313 3.39764263 9.98944339 3.73775349 12 4 C12 4.99 12 5.98 12 7 C8.8125 7.375 8.8125 7.375 5 7 C2.80738095 5.19271747 1.61442456 3.39717586 0 1 C0 0.67 0 0.34 0 0 Z " fill="#61CAD1" transform="translate(455,843)"/>
<path d="M0 0 C4.29 0 8.58 0 13 0 C12.67 1.32 12.34 2.64 12 4 C11.34 4 10.68 4 10 4 C10 3.34 10 2.68 10 2 C6.7 2 3.4 2 0 2 C0 1.34 0 0.68 0 0 Z " fill="#44C2CA" transform="translate(420,838)"/>
<path d="M0 0 C0.99 0 1.98 0 3 0 C3.45375 0.474375 3.9075 0.94875 4.375 1.4375 C6.46366683 3.44583349 8.1783448 3.61869524 11 4 C9.8125 5.5625 9.8125 5.5625 8 7 C5.5 6.9375 5.5 6.9375 3 6 C0 2.79310345 0 2.79310345 0 0 Z " fill="#62CAD1" transform="translate(922,843)"/>
<path d="M0 0 C1.3125 2.0625 1.3125 2.0625 2 4 C1.34 4 0.68 4 0 4 C-0.33 4.99 -0.66 5.98 -1 7 C-1.33 5.02 -1.66 3.04 -2 1 C-5.3 1 -8.6 1 -12 1 C-12 0.67 -12 0.34 -12 0 C-3.86503067 -1.43558282 -3.86503067 -1.43558282 0 0 Z " fill="#67CCD2" transform="translate(634,827)"/>
<path d="M0 0 C0.350625 0.639375 0.70125 1.27875 1.0625 1.9375 C3.77184206 4.82163832 6.15858911 4.7100822 10 5 C8.68 5.33 7.36 5.66 6 6 C6 6.66 6 7.32 6 8 C3.64035727 7.59316505 2.14065912 7.10185661 0.1875 5.6875 C-1 4 -1 4 -0.6875 1.8125 C-0.460625 1.214375 -0.23375 0.61625 0 0 Z " fill="#5BC9CF" transform="translate(896,842)"/>
<path d="M0 0 C0.66 0 1.32 0 2 0 C2.3125 2.25 2.3125 2.25 2 5 C-0.5 7.3125 -0.5 7.3125 -3 9 C-3.66 8.67 -4.32 8.34 -5 8 C-5 7.34 -5 6.68 -5 6 C-4.01 5.67 -3.02 5.34 -2 5 C-0.78130071 2.49552484 -0.78130071 2.49552484 0 0 Z " fill="#4FC5CC" transform="translate(634,831)"/>
<path d="M0 0 C-0.98093954 2.45234885 -1.68703828 3.7809268 -3.875 5.3125 C-6.35009306 6.1132654 -7.58287634 5.86325845 -10 5 C-9.4225 4.731875 -8.845 4.46375 -8.25 4.1875 C-5.94252104 3.04946754 -5.94252104 3.04946754 -3.875 1.375 C-2 0 -2 0 0 0 Z " fill="#56C7CE" transform="translate(816,844)"/>
<path d="M0 0 C0 0.66 0 1.32 0 2 C0.99 2.33 1.98 2.66 3 3 C3.33 3.99 3.66 4.98 4 6 C2.68 5.67 1.36 5.34 0 5 C0 4.34 0 3.68 0 3 C-1.98 3 -3.96 3 -6 3 C-3.375 0 -3.375 0 0 0 Z " fill="#66CCD2" transform="translate(468,825)"/>
<path d="M0 0 C0.99 0.33 1.98 0.66 3 1 C0.94766315 3.2477975 -0.00667261 4.0022242 -3 5 C-3.66 5.99 -4.32 6.98 -5 8 C-4.66275164 4.88045262 -4.3790035 3.3790035 -2.125 1.125 C-1.42375 0.75375 -0.7225 0.3825 0 0 Z " fill="#66CCD2" transform="translate(927,825)"/>
<path d="M0 0 C0.33 0.99 0.66 1.98 1 3 C0.01 3.99 -0.98 4.98 -2 6 C-2.99 5.67 -3.98 5.34 -5 5 C-3.35 3.35 -1.7 1.7 0 0 Z " fill="#62CBD1" transform="translate(594,844)"/>
</svg>
